<svg width="1440" height="1186" viewBox="0 0 1440 1186" fill="none" xmlns="http://www.w3.org/2000/svg">
<rect width="1440" height="818" transform="translate(0 265)" fill="white"/>
<path opacity="0.1" d="M1440 265L1440 1186L-4.02582e-05 1186L0 265L1440 265Z" fill="url(#paint0_linear)"/>
<path d="M0 1042.52H1440V1186H0V1042.52Z" fill="url(#paint1_linear)"/>
<g filter="url(#filter0_f)">
<path d="M-365.956 553.978C-365.956 700.598 -247.098 819.456 -100.478 819.456C46.1414 819.456 165 700.598 165 553.978C165 407.359 46.1414 288.5 -100.478 288.5C-247.098 288.5 -365.956 407.359 -365.956 553.978Z" fill="#74B4FF" fill-opacity="0.15"/>
</g>
<g opacity="0.2" filter="url(#filter1_f)">
<path d="M1263.92 344.521C1263.92 451.832 1350.91 538.824 1458.22 538.824C1565.53 538.824 1652.53 451.832 1652.53 344.521C1652.53 237.21 1565.53 150.217 1458.22 150.217C1350.91 150.217 1263.92 237.21 1263.92 344.521Z" fill="#7885FF"/>
</g>
<defs>
<filter id="filter0_f" x="-515.956" y="138.5" width="830.956" height="830.956" filterUnits="userSpaceOnUse" color-interpolation-filters="sRGB">
<feFlood flood-opacity="0" result="BackgroundImageFix"/>
<feBlend mode="normal" in="SourceGraphic" in2="BackgroundImageFix" result="shape"/>
<feGaussianBlur stdDeviation="75" result="effect1_foregroundBlur"/>
</filter>
<filter id="filter1_f" x="1113.92" y="0.217041" width="688.607" height="688.607" filterUnits="userSpaceOnUse" color-interpolation-filters="sRGB">
<feFlood flood-opacity="0" result="BackgroundImageFix"/>
<feBlend mode="normal" in="SourceGraphic" in2="BackgroundImageFix" result="shape"/>
<feGaussianBlur stdDeviation="75" result="effect1_foregroundBlur"/>
</filter>
<linearGradient id="paint0_linear" x1="720" y1="265" x2="720" y2="1186" gradientUnits="userSpaceOnUse">
<stop stop-color="#6F7DFF" stop-opacity="0.98"/>
<stop offset="1" stop-color="#5E9DFF"/>
</linearGradient>
<linearGradient id="paint1_linear" x1="720" y1="1042.52" x2="720" y2="1186" gradientUnits="userSpaceOnUse">
<stop stop-color="white" stop-opacity="0"/>
<stop offset="1" stop-color="white"/>
</linearGradient>
</defs>
</svg>
