<svg width="40" height="40" viewBox="0 0 40 40" fill="none" xmlns="http://www.w3.org/2000/svg">
<g clip-path="url(#clip0)">
<path d="M21.7167 3.11664L3.4 0.333301C2.55 0.199967 1.68333 0.433301 1.03333 0.983301C0.383333 1.54997 0 2.36664 0 3.21664V38.3333C0 39.25 0.75 40 1.66667 40H7.08333V31.25C7.08333 29.6333 8.38333 28.3333 10 28.3333H14.1667C15.7833 28.3333 17.0833 29.6333 17.0833 31.25V40H24.1667V5.99997C24.1667 4.56664 23.1333 3.34997 21.7167 3.11664ZM9.16667 24.5833H6.66667C5.97667 24.5833 5.41667 24.0233 5.41667 23.3333C5.41667 22.6433 5.97667 22.0833 6.66667 22.0833H9.16667C9.85667 22.0833 10.4167 22.6433 10.4167 23.3333C10.4167 24.0233 9.85667 24.5833 9.16667 24.5833ZM9.16667 19.5833H6.66667C5.97667 19.5833 5.41667 19.0233 5.41667 18.3333C5.41667 17.6433 5.97667 17.0833 6.66667 17.0833H9.16667C9.85667 17.0833 10.4167 17.6433 10.4167 18.3333C10.4167 19.0233 9.85667 19.5833 9.16667 19.5833ZM9.16667 14.5833H6.66667C5.97667 14.5833 5.41667 14.0233 5.41667 13.3333C5.41667 12.6433 5.97667 12.0833 6.66667 12.0833H9.16667C9.85667 12.0833 10.4167 12.6433 10.4167 13.3333C10.4167 14.0233 9.85667 14.5833 9.16667 14.5833ZM9.16667 9.58331H6.66667C5.97667 9.58331 5.41667 9.02331 5.41667 8.33331C5.41667 7.64331 5.97667 7.08331 6.66667 7.08331H9.16667C9.85667 7.08331 10.4167 7.64331 10.4167 8.33331C10.4167 9.02331 9.85667 9.58331 9.16667 9.58331ZM17.5 24.5833H15C14.31 24.5833 13.75 24.0233 13.75 23.3333C13.75 22.6433 14.31 22.0833 15 22.0833H17.5C18.19 22.0833 18.75 22.6433 18.75 23.3333C18.75 24.0233 18.19 24.5833 17.5 24.5833ZM17.5 19.5833H15C14.31 19.5833 13.75 19.0233 13.75 18.3333C13.75 17.6433 14.31 17.0833 15 17.0833H17.5C18.19 17.0833 18.75 17.6433 18.75 18.3333C18.75 19.0233 18.19 19.5833 17.5 19.5833ZM17.5 14.5833H15C14.31 14.5833 13.75 14.0233 13.75 13.3333C13.75 12.6433 14.31 12.0833 15 12.0833H17.5C18.19 12.0833 18.75 12.6433 18.75 13.3333C18.75 14.0233 18.19 14.5833 17.5 14.5833ZM17.5 9.58331H15C14.31 9.58331 13.75 9.02331 13.75 8.33331C13.75 7.64331 14.31 7.08331 15 7.08331H17.5C18.19 7.08331 18.75 7.64331 18.75 8.33331C18.75 9.02331 18.19 9.58331 17.5 9.58331Z" fill="white"/>
<path d="M37.6996 18.07L25.833 15.585V40H37.083C38.6913 40 39.9996 38.6916 39.9996 37.0833V20.92C39.9996 19.5433 39.0613 18.3716 37.6996 18.07ZM33.7497 35H31.2497C30.5597 35 29.9997 34.44 29.9997 33.75C29.9997 33.06 30.5597 32.5 31.2497 32.5H33.7497C34.4397 32.5 34.9997 33.06 34.9997 33.75C34.9997 34.44 34.4397 35 33.7497 35ZM33.7497 30H31.2497C30.5597 30 29.9997 29.44 29.9997 28.75C29.9997 28.06 30.5597 27.5 31.2497 27.5H33.7497C34.4397 27.5 34.9997 28.06 34.9997 28.75C34.9997 29.44 34.4397 30 33.7497 30ZM33.7497 25H31.2497C30.5597 25 29.9997 24.44 29.9997 23.75C29.9997 23.06 30.5597 22.5 31.2497 22.5H33.7497C34.4397 22.5 34.9997 23.06 34.9997 23.75C34.9997 24.44 34.4397 25 33.7497 25Z" fill="white"/>
</g>
<defs>
<clipPath id="clip0">
<rect width="40" height="40" fill="white"/>
</clipPath>
</defs>
</svg>
