<svg width="150" height="96" viewBox="0 0 150 96" fill="none" xmlns="http://www.w3.org/2000/svg">
<g clip-path="url(#clip0)">
<path d="M90.3846 37.5434C89.6083 35.9195 86.818 33.6655 84.1252 31.4865C82.6251 30.2714 81.2037 29.1238 80.2998 28.2162C80.1886 28.1051 80.048 28.0281 79.8946 27.9942C79.7411 27.9603 79.5811 27.971 79.4335 28.0249C78.8747 28.2237 78.5296 28.4 78.2596 28.5012C77.9113 28.6834 77.5272 28.7871 77.1345 28.805C77.0118 28.8186 76.8936 28.8592 76.7885 28.9241C76.6834 28.989 76.5941 29.0764 76.527 29.18C75.3606 30.9277 74.1492 30.7815 73.3391 30.5077C73.0804 30.4214 73.0353 30.3127 73.0091 30.2076C72.8366 29.4801 73.7067 27.7887 74.8393 26.6598C77.5283 23.967 78.9122 23.2845 81.8412 24.6046C85.1716 26.0785 88.5094 27.2524 88.5357 27.2524C88.6397 27.2942 88.7512 27.3146 88.8634 27.3121C88.9756 27.3096 89.0861 27.2844 89.1882 27.238C89.2903 27.1915 89.382 27.1248 89.4576 27.0419C89.5332 26.959 89.5911 26.8616 89.628 26.7557C89.6648 26.6497 89.6798 26.5374 89.6719 26.4254C89.6641 26.3135 89.6336 26.2044 89.5823 26.1046C89.531 26.0048 89.46 25.9165 89.3736 25.8449C89.2871 25.7734 89.1871 25.7202 89.0795 25.6884C89.0457 25.6884 85.7829 24.5371 82.5276 23.0632C78.7322 21.368 76.6507 22.4856 73.6767 25.4597C72.5516 26.5848 71.0064 28.8838 71.4039 30.5602C71.4873 30.9135 71.6627 31.2384 71.9124 31.5019C72.162 31.7654 72.477 31.9581 72.8253 32.0603C74.7005 32.6791 76.4107 32.0866 77.7008 30.3952C78.1327 30.33 78.5517 30.1971 78.9422 30.0014C79.0997 29.9339 79.2797 29.8514 79.5235 29.7539C80.4686 30.6427 81.7475 31.6778 83.0901 32.7542C85.5091 34.7531 88.2656 36.9696 88.8844 38.2597C88.9999 38.4617 89.0385 38.6986 88.993 38.9267C88.9475 39.1549 88.821 39.3589 88.6369 39.5011C88.5072 39.6339 88.3404 39.7244 88.1583 39.7606C87.9762 39.7967 87.7874 39.7768 87.6168 39.7036C87.488 39.6149 87.3366 39.5646 87.1803 39.5586C87.024 39.5526 86.8692 39.5912 86.734 39.6698C86.5988 39.7484 86.4887 39.8638 86.4166 40.0026C86.3445 40.1414 86.3133 40.2978 86.3267 40.4537C86.3264 40.6544 86.2658 40.8503 86.1528 41.0162C86.0398 41.182 85.8796 41.3101 85.6929 41.3838C85.5002 41.5038 85.2789 41.5699 85.0519 41.5752C84.825 41.5805 84.6008 41.5247 84.4027 41.4138C84.2899 41.3075 84.1495 41.2352 83.9975 41.2051C83.8455 41.1749 83.688 41.1882 83.5432 41.2434C83.3984 41.2986 83.2721 41.3934 83.1787 41.5171C83.0853 41.6407 83.0286 41.7882 83.0151 41.9426C82.9817 42.2221 82.8735 42.4874 82.7018 42.7105C82.5302 42.9336 82.3016 43.1062 82.04 43.2102C81.8842 43.2809 81.7111 43.3048 81.5419 43.2788C81.3728 43.2528 81.2148 43.1782 81.0874 43.0639C80.9874 42.9717 80.8661 42.9057 80.7344 42.8717C80.6026 42.8377 80.4645 42.8369 80.3324 42.8691C80.2002 42.9014 80.0781 42.9659 79.9769 43.0568C79.8757 43.1477 79.7985 43.2623 79.7523 43.3902C79.7223 43.4727 79.651 43.6715 78.8747 43.6715C78.1555 43.5979 77.4627 43.3606 76.8495 42.9777C76.2682 42.6026 72.6266 39.8799 69.48 37.2471C69.0374 36.8721 68.2724 36.077 67.6048 35.3719C67.0085 34.7456 66.4609 34.1793 66.1797 33.9393C66.0106 33.8113 65.7989 33.753 65.5881 33.7763C65.3773 33.7997 65.1835 33.903 65.0466 34.0649C64.9096 34.2268 64.84 34.4351 64.8519 34.6468C64.8639 34.8586 64.9565 35.0577 65.1108 35.2031C65.3658 35.4207 65.8609 35.9532 66.4084 36.5158C67.1585 37.2884 67.9086 38.0834 68.4224 38.5147C71.5052 41.095 75.2068 43.8778 75.9456 44.3653C76.831 44.9213 77.8394 45.251 78.8822 45.3254C79.5528 45.3697 80.2174 45.1743 80.7574 44.7741C81.3602 45.01 82.0298 45.01 82.6326 44.7741C83.3829 44.4746 83.996 43.9082 84.354 43.1839C85.0606 43.3202 85.7925 43.2145 86.4317 42.8839C87.0527 42.5874 87.5436 42.0738 87.8118 41.44C88.5119 41.4675 89.1952 41.2213 89.717 40.7537C90.1761 40.3738 90.4923 39.849 90.6136 39.2656C90.735 38.6822 90.6542 38.0748 90.3846 37.5434Z" fill="white"/>
<path d="M75.571 23.8359H68.1227C67.913 23.8501 67.7165 23.9433 67.573 24.0969C67.4295 24.2504 67.3496 24.4527 67.3496 24.6629C67.3496 24.8731 67.4295 25.0754 67.573 25.2289C67.7165 25.3825 67.913 25.4757 68.1227 25.4899H75.571C75.7807 25.4757 75.9772 25.3825 76.1207 25.2289C76.2642 25.0754 76.3441 24.8731 76.3441 24.6629C76.3441 24.4527 76.2642 24.2504 76.1207 24.0969C75.9772 23.9433 75.7807 23.8501 75.571 23.8359Z" fill="white"/>
<path d="M92.8034 35.7843C92.743 35.694 92.6653 35.6165 92.5749 35.5563C92.4844 35.4961 92.383 35.4543 92.2763 35.4334C92.1697 35.4125 92.06 35.4128 91.9535 35.4344C91.847 35.4561 91.7458 35.4985 91.6558 35.5593L89.2368 37.1832C89.0965 37.2847 88.9915 37.4275 88.9365 37.5916C88.8815 37.7558 88.8793 37.933 88.9302 38.0985C88.981 38.264 89.0825 38.4094 89.2202 38.5143C89.3579 38.6192 89.525 38.6783 89.6981 38.6834C89.8627 38.6836 90.0236 38.6339 90.1594 38.5409L92.5784 36.9169C92.7558 36.7945 92.8786 36.6077 92.9206 36.3963C92.9626 36.1848 92.9205 35.9653 92.8034 35.7843Z" fill="white"/>
<path d="M87.6656 39.7337C87.073 39.2649 84.4253 36.5534 82.7901 34.8582C82.7204 34.7652 82.6319 34.688 82.5303 34.6315C82.4286 34.5751 82.3163 34.5408 82.2005 34.5309C82.0847 34.5209 81.9681 34.5355 81.8583 34.5738C81.7486 34.612 81.6481 34.673 81.5636 34.7528C81.479 34.8325 81.4123 34.9292 81.3677 35.0366C81.3232 35.1439 81.3018 35.2595 81.305 35.3756C81.3082 35.4918 81.3359 35.606 81.3863 35.7107C81.4367 35.8155 81.5087 35.9084 81.5975 35.9833C82.0213 36.4259 85.7717 40.3375 86.6455 41.0238C86.79 41.1402 86.97 41.2038 87.1555 41.2039C87.2812 41.2029 87.4051 41.1738 87.5181 41.1186C87.631 41.0635 87.7301 40.9837 87.8081 40.8851C87.9407 40.713 88.0001 40.4957 87.9734 40.2801C87.9467 40.0646 87.8361 39.8682 87.6656 39.7337Z" fill="white"/>
<path d="M84.361 41.3914C83.3709 40.6 80.8806 37.9523 80.3181 37.341C80.2442 37.2607 80.1552 37.1957 80.0562 37.1498C79.9573 37.1039 79.8502 37.078 79.7412 37.0735C79.6322 37.0689 79.5234 37.0859 79.4209 37.1235C79.3185 37.161 79.2245 37.2183 79.1442 37.2922C79.0639 37.3661 78.999 37.455 78.9531 37.554C78.9072 37.653 78.8812 37.76 78.8767 37.869C78.8722 37.978 78.8892 38.0869 78.9267 38.1893C78.9642 38.2918 79.0216 38.3858 79.0954 38.4661C79.1254 38.4961 82.0957 41.7064 83.3259 42.689C83.4735 42.8049 83.6557 42.8683 83.8434 42.869C84.0146 42.8684 84.1814 42.8148 84.321 42.7156C84.4605 42.6163 84.5658 42.4763 84.6225 42.3148C84.6793 42.1533 84.6846 41.9781 84.6377 41.8134C84.5909 41.6488 84.4942 41.5026 84.361 41.3951V41.3914Z" fill="white"/>
<path d="M81.0682 43.0564C79.8869 42.0625 77.4754 39.4935 77.0028 38.9872C76.8496 38.8446 76.648 38.7652 76.4386 38.7651C76.2292 38.765 76.0276 38.8442 75.8742 38.9867C75.7207 39.1292 75.6269 39.3244 75.6116 39.5332C75.5963 39.7421 75.6605 39.9489 75.7915 40.1123C76.4703 40.8361 78.7918 43.2851 79.9994 44.3165C80.1675 44.4582 80.385 44.5274 80.6041 44.5088C80.8232 44.4901 81.0259 44.3852 81.1676 44.2171C81.3094 44.049 81.3785 43.8315 81.3599 43.6124C81.3412 43.3933 81.2363 43.1906 81.0682 43.0489V43.0564Z" fill="white"/>
<path d="M68.6919 22.4069C67.2743 21.0643 61.6037 20.6292 59.901 20.5317C59.7885 20.5251 59.6757 20.5415 59.5697 20.5799C59.4637 20.6184 59.3667 20.678 59.2845 20.7552C59.2024 20.8325 59.1369 20.9257 59.092 21.0291C59.0471 21.1325 59.0238 21.244 59.0234 21.3568V36.2533C59.0234 36.4725 59.1102 36.6827 59.2649 36.838C59.4195 36.9934 59.6293 37.0811 59.8485 37.0821H64.814C64.9889 37.0813 65.1591 37.0255 65.3005 36.9225C65.4419 36.8195 65.5472 36.6746 65.6016 36.5083C65.7216 36.1333 68.5719 27.3874 68.9469 23.0857C68.9592 22.9606 68.9426 22.8343 68.8984 22.7166C68.8542 22.5989 68.7835 22.493 68.6919 22.4069ZM64.2102 35.4169H60.6773V22.2419C63.3364 22.4519 66.2054 22.9057 67.248 23.412C66.8092 27.0386 64.8253 33.4743 64.2102 35.4169Z" fill="white"/>
<path d="M97.9074 22.1816C91.4117 22.1816 87.8076 23.8431 87.6576 23.9143C87.552 23.964 87.458 24.0355 87.382 24.124C87.3059 24.2125 87.2493 24.3161 87.216 24.428C87.1828 24.5398 87.1735 24.6575 87.1888 24.7732C87.2042 24.8889 87.2438 25.0001 87.3051 25.0994C88.3289 26.7459 91.5317 35.878 92.1468 38.1282C92.1939 38.303 92.2974 38.4572 92.4411 38.5671C92.5849 38.6769 92.7609 38.7363 92.9419 38.7358H97.9074C98.016 38.7358 98.1236 38.7143 98.224 38.6726C98.3243 38.6309 98.4155 38.5698 98.4921 38.4928C98.5688 38.4158 98.6295 38.3244 98.6707 38.2239C98.712 38.1233 98.733 38.0156 98.7325 37.907V23.0067C98.733 22.8982 98.712 22.7907 98.6707 22.6904C98.6294 22.5901 98.5686 22.4989 98.4919 22.4222C98.4152 22.3455 98.324 22.2847 98.2237 22.2434C98.1234 22.2022 98.0159 22.1812 97.9074 22.1816ZM97.0785 37.0744H93.5607C92.7769 34.5166 90.4629 27.856 89.169 25.1032C91.7281 24.2923 94.3941 23.8688 97.0785 23.8468V37.0744Z" fill="white"/>
<path d="M117.438 3.567L117.188 3.42264L116.938 3.56699L96.0859 15.6057L95.8359 15.75V16.0387V40.1124V40.4011L96.086 40.5454L116.938 52.5804L117.188 52.7246L117.438 52.5803L138.286 40.5454L138.536 40.4011V40.1124V16.0387V15.7501L138.286 15.6057L117.438 3.567ZM117.188 7.83643L132.802 16.8525L117.188 25.8649L101.57 16.8525L117.188 7.83643ZM99.66 38.1923V20.1599L115.274 29.1725V47.2119L99.66 38.1923ZM134.712 38.2145L119.098 47.2129V29.1725L134.712 20.1599V38.2145Z" fill="white" stroke="white"/>
<path d="M40.6345 3.567L40.3845 3.42263L40.1344 3.567L19.2861 15.6057L19.0361 15.7501V16.0387V40.1124V40.4011L19.2862 40.5454L40.1345 52.5803L40.3845 52.7246L40.6344 52.5803L61.4828 40.5454L61.7328 40.4011V40.1124V16.0387V15.7501L61.4828 15.6057L40.6345 3.567ZM40.3845 7.8364L56.0057 16.8525L40.3845 25.865L24.7668 16.8525L40.3845 7.8364ZM22.8564 38.1923V20.1598L38.4743 29.1725V47.212L22.8564 38.1923ZM57.9125 38.2145L42.2946 47.213V29.1725L57.9125 20.1598V38.2145Z" fill="white" stroke="white"/>
<path fill-rule="evenodd" clip-rule="evenodd" d="M13.9663 76.2808C12.9539 76.7909 11.8331 77.0482 10.6997 77.0309C9.79967 77.0551 8.90399 76.8976 8.06627 76.5676C7.22855 76.2377 6.46598 75.7421 5.82421 75.1107C5.18401 74.4988 4.67829 73.7603 4.3393 72.9422C4.0003 72.1241 3.83545 71.2443 3.85526 70.3589C3.84383 69.185 4.14131 68.0288 4.71785 67.0061C5.28514 65.9946 6.11759 65.1569 7.12559 64.5834C8.15162 63.9921 9.31678 63.6853 10.5009 63.6945C11.4056 63.6828 12.3033 63.8531 13.1409 64.1952C13.9784 64.5373 14.7387 65.0443 15.3764 65.686L17.8629 63.1395C16.9251 62.256 15.8263 61.5608 14.6263 61.0918C13.3359 60.5874 11.9614 60.3329 10.5759 60.3417C9.11805 60.3303 7.67118 60.595 6.31176 61.1218C5.0551 61.5977 3.90808 62.3236 2.94017 63.2557C2.01659 64.1615 1.2834 65.2428 0.783703 66.4361C-0.0020125 68.2769 -0.214733 70.3118 0.173289 72.2753C0.56131 74.2388 1.53206 76.0398 2.95892 77.4434C3.93067 78.3697 5.07845 79.0915 6.33426 79.5661C7.69919 80.0919 9.15077 80.3565 10.6134 80.3462C12.2838 80.3693 13.939 80.0262 15.4627 79.3411C16.844 78.7267 18.0627 77.7982 19.0218 76.6296L16.3703 74.3231C15.7162 75.1382 14.8969 75.8054 13.9663 76.2808ZM34.0345 68.5063C33.4518 67.8248 32.7256 67.2805 31.9081 66.9124C31.0675 66.5292 30.1541 66.3322 29.2303 66.3348C27.8763 66.3237 26.557 66.763 25.4799 67.5837V60.3567H21.7521V80.0762H25.4687V71.3303C25.8502 70.8592 26.322 70.469 26.8563 70.1827C27.463 69.8376 28.1498 69.6578 28.8478 69.6614C29.2271 69.642 29.6066 69.6983 29.9639 69.8271C30.3213 69.9559 30.6494 70.1545 30.9292 70.4115C31.4768 70.944 31.7543 71.7916 31.7543 72.9467V80.0724H35.4822V73.2167C35.4988 72.2755 35.3723 71.3372 35.1071 70.434C34.8875 69.7238 34.5221 69.0673 34.0345 68.5063ZM49.1898 67.7074C48.034 66.7939 46.5974 66.3089 45.1244 66.3348C44.2249 66.3205 43.3323 66.4934 42.5032 66.8427C41.6742 67.192 40.9269 67.71 40.3089 68.3637C39.0717 69.6703 38.365 71.3904 38.3261 73.1893C38.2873 74.9883 38.9192 76.7373 40.0989 78.096C40.7417 78.8114 41.5326 79.3783 42.4166 79.7574C43.3303 80.1636 44.3195 80.3719 45.3194 80.3687C46.7314 80.3956 48.1056 79.9122 49.1898 79.0073V80.0912H52.7639V66.6086H49.1898V67.7074ZM49.051 75.3694C48.6783 75.8839 48.1868 76.3008 47.6184 76.5846C47.0236 76.8867 46.3653 77.0423 45.6982 77.0384C45.2128 77.0508 44.73 76.9642 44.2793 76.7837C43.8286 76.6032 43.4194 76.3326 43.0768 75.9886C42.7342 75.6446 42.4654 75.2344 42.2867 74.7829C42.1081 74.3314 42.0234 73.8483 42.0378 73.363C42.0217 72.3995 42.3808 71.4676 43.0392 70.764C43.3636 70.4059 43.7622 70.1227 44.2071 69.9342C44.6521 69.7458 45.1327 69.6565 45.6157 69.6726C46.2904 69.668 46.9568 69.8209 47.5621 70.1189C48.1513 70.403 48.6652 70.8218 49.0623 71.3415L49.051 75.3694ZM58.9108 59.5054C58.2733 59.4927 57.6564 59.7312 57.1931 60.1692C56.9689 60.3796 56.7901 60.6338 56.668 60.916C56.5458 61.1982 56.4828 61.5025 56.4828 61.81C56.4828 62.1175 56.5458 62.4217 56.668 62.7039C56.7901 62.9861 56.9689 63.2403 57.1931 63.4508C57.662 63.8803 58.2748 64.1186 58.9108 64.1186C59.5467 64.1186 60.1595 63.8803 60.6284 63.4508C60.8527 63.2403 61.0314 62.9861 61.1536 62.7039C61.2757 62.4217 61.3388 62.1175 61.3388 61.81C61.3388 61.5025 61.2757 61.1982 61.1536 60.916C61.0314 60.6338 60.8527 60.3796 60.6284 60.1692C60.1651 59.7312 59.5482 59.4927 58.9108 59.5054ZM57.0356 80.0649H60.756V66.6086H57.0431L57.0356 80.0649ZM78.4127 70.4227C78.1909 69.7085 77.8231 69.0483 77.3326 68.4838C76.7485 67.8021 76.0211 67.2579 75.2024 66.8898C74.363 66.5071 73.4509 66.3101 72.5284 66.3123C71.1095 66.3143 69.7341 66.8028 68.6317 67.6962V66.6086H65.0576V80.0762H68.7705V71.3303C69.1526 70.8583 69.6258 70.468 70.1619 70.1827C70.7671 69.8372 71.4527 69.6574 72.1496 69.6614C72.529 69.6411 72.9087 69.6971 73.2662 69.8259C73.6237 69.9547 73.9517 70.1538 74.231 70.4115C74.7823 70.944 75.0561 71.7916 75.0561 72.9467V80.0724H78.784V73.2167C78.8086 72.2764 78.6884 71.3378 78.4277 70.434L78.4127 70.4227Z" fill="white"/>
<path fill-rule="evenodd" clip-rule="evenodd" d="M95.4467 76.2808C94.4344 76.7909 93.3136 77.0482 92.1802 77.0309C91.2801 77.0551 90.3845 76.8976 89.5467 76.5676C88.709 76.2377 87.9464 75.7422 87.3047 75.1107C86.6645 74.4988 86.1588 73.7603 85.8198 72.9422C85.4808 72.1241 85.3159 71.2443 85.3357 70.359C85.3243 69.1851 85.6218 68.0288 86.1983 67.0061C86.7651 65.9965 87.5962 65.1602 88.6023 64.5871C89.6338 63.9927 90.8059 63.6857 91.9964 63.6983C92.901 63.6866 93.7988 63.8569 94.6363 64.199C95.4739 64.5411 96.2341 65.048 96.8719 65.6898L99.3584 63.1432C98.4106 62.2561 97.3 61.5608 96.088 61.0955C94.7976 60.5912 93.4231 60.3367 92.0376 60.3455C90.574 60.3358 89.1218 60.6043 87.7585 61.1368C86.5151 61.6123 85.38 62.3329 84.4206 63.2558C83.4971 64.1616 82.7639 65.2429 82.2642 66.4361C81.4785 68.2769 81.2657 70.3118 81.6538 72.2753C82.0418 74.2388 83.0125 76.0398 84.4394 77.4434C85.4111 78.3697 86.5589 79.0915 87.8147 79.5661C89.1797 80.0919 90.6312 80.3566 92.0939 80.3462C93.7631 80.3697 95.4172 80.0266 96.9394 79.3411C98.3224 78.7278 99.5426 77.7992 100.502 76.6296L97.8507 74.3231C97.1967 75.1382 96.3774 75.8054 95.4467 76.2808ZM113.22 67.2799C112.062 66.6595 110.769 66.3348 109.456 66.3348C108.143 66.3348 106.85 66.6595 105.693 67.2799C104.594 67.8746 103.676 68.7559 103.037 69.8302C102.411 70.9009 102.081 72.1189 102.081 73.3593C102.081 74.5996 102.411 75.8177 103.037 76.8884C103.678 77.9574 104.595 78.8333 105.693 79.4236C106.852 80.0393 108.144 80.3612 109.456 80.3612C110.769 80.3612 112.061 80.0393 113.22 79.4236C114.315 78.8322 115.231 77.9564 115.871 76.8884C116.5 75.8186 116.832 74.6002 116.832 73.3593C116.832 72.1184 116.5 70.9 115.871 69.8302C115.235 68.7527 114.319 67.8676 113.22 67.2687V67.2799ZM112.095 75.9808C111.387 76.6549 110.447 77.0309 109.469 77.0309C108.492 77.0309 107.552 76.6549 106.844 75.9808C106.183 75.2662 105.816 74.3288 105.816 73.3555C105.816 72.3823 106.183 71.4448 106.844 70.7303C107.55 70.0519 108.491 69.6729 109.469 69.6729C110.448 69.6729 111.389 70.0519 112.095 70.7303C112.757 71.444 113.125 72.3818 113.125 73.3555C113.125 74.3293 112.757 75.267 112.095 75.9808ZM129.853 67.5837C128.721 66.7407 127.34 66.301 125.93 66.3348C125.03 66.3209 124.137 66.494 123.307 66.8433C122.478 67.1925 121.73 67.7103 121.111 68.3638C119.873 69.6703 119.167 71.3904 119.128 73.1894C119.089 74.9883 119.721 76.7373 120.901 78.096C121.545 78.8079 122.335 79.3721 123.218 79.7499C124.133 80.1565 125.124 80.3649 126.125 80.3612C127.533 80.3871 128.904 79.9067 129.988 79.0073V80.0912H133.562V60.3567H129.845L129.853 67.5837ZM129.853 75.3695C129.48 75.883 128.99 76.2997 128.424 76.5846C127.829 76.8863 127.171 77.0419 126.504 77.0384C126.018 77.0514 125.535 76.9651 125.084 76.7848C124.633 76.6045 124.224 76.334 123.881 75.9899C123.538 75.6457 123.269 75.2352 123.091 74.7836C122.913 74.3319 122.828 73.8485 122.843 73.363C122.828 72.4004 123.185 71.469 123.841 70.764C124.166 70.4065 124.564 70.1237 125.009 69.9353C125.454 69.7469 125.934 69.6573 126.417 69.6727C127.093 69.668 127.761 69.8208 128.368 70.1189C128.957 70.4025 129.471 70.8214 129.868 71.3416L129.853 75.3695ZM150.015 73.2168C150.026 72.0216 149.74 70.8423 149.182 69.7852C148.645 68.7505 147.838 67.8808 146.846 67.2687C145.834 66.6376 144.663 66.3097 143.47 66.3236C142.513 66.3141 141.564 66.5084 140.688 66.8936C139.871 67.2461 139.142 67.7721 138.55 68.435C137.968 69.0965 137.513 69.8592 137.207 70.6853C136.887 71.5402 136.724 72.4462 136.727 73.3593C136.727 75.437 137.411 77.1234 138.779 78.4185C140.191 79.727 142.064 80.424 143.988 80.3575C145.077 80.3595 146.155 80.1453 147.161 79.7274C148.128 79.34 148.989 78.7281 149.673 77.9422L147.566 75.8945C147.132 76.3402 146.625 76.707 146.066 76.9784C145.449 77.2878 144.768 77.446 144.078 77.4397C143.151 77.4611 142.247 77.1453 141.535 76.5508C141.19 76.269 140.905 75.9198 140.699 75.5246C140.493 75.1294 140.369 74.6964 140.335 74.2519H149.943C149.998 73.9097 150.022 73.5632 150.015 73.2168ZM140.489 71.6003C140.588 70.9412 140.943 70.3474 141.475 69.9464C142.033 69.4824 142.737 69.2325 143.463 69.2414C144.156 69.2285 144.828 69.4838 145.338 69.9539C145.829 70.3697 146.14 70.96 146.204 71.6003H140.489Z" fill="white"/>
<path fill-rule="evenodd" clip-rule="evenodd" d="M5.37804 91.7585C5.01436 91.9418 4.61134 92.0332 4.20418 92.0248C3.8814 92.0335 3.56021 91.9768 3.25989 91.8582C2.95956 91.7396 2.6863 91.5616 2.4565 91.3347C2.22553 91.1149 2.04313 90.8492 1.92105 90.5547C1.79897 90.2601 1.73992 89.9433 1.74768 89.6246C1.743 89.2028 1.85042 88.7873 2.05896 88.4207C2.26203 88.0576 2.56026 87.7568 2.92155 87.5506C3.29309 87.3365 3.7154 87.2264 4.14417 87.2318C4.46866 87.2277 4.79066 87.289 5.09093 87.4121C5.39121 87.5351 5.6636 87.7175 5.89184 87.9481L6.78443 87.0293C6.44571 86.7052 6.04695 86.4504 5.61057 86.2792C5.14515 86.1006 4.65016 86.0115 4.15167 86.0167C3.62738 86.0109 3.10679 86.1051 2.61777 86.2942C2.17021 86.4609 1.7608 86.716 1.4139 87.0443C1.08389 87.3648 0.820117 87.7471 0.637568 88.1694C0.451984 88.6157 0.356445 89.0943 0.356445 89.5777C0.356445 90.061 0.451984 90.5396 0.637568 90.9859C0.815335 91.4321 1.08379 91.8364 1.42595 92.1734C1.7681 92.5104 2.17649 92.7727 2.62527 92.9436C3.11668 93.134 3.63971 93.2294 4.16667 93.2249C4.76831 93.228 5.3634 93.1 5.9106 92.8499C6.40696 92.6288 6.84486 92.2949 7.18947 91.8748L6.23688 91.046C6.00342 91.3408 5.71088 91.5835 5.37804 91.7585ZM23.3798 87.0818C23.0356 86.7538 22.6287 86.4987 22.1835 86.3317C21.2056 85.9567 20.1235 85.9567 19.1457 86.3317C18.7012 86.4978 18.2953 86.7531 17.9531 87.0818C17.6313 87.4109 17.3765 87.7994 17.203 88.2257C16.8331 89.1229 16.8331 90.13 17.203 91.0272C17.3828 91.4626 17.6494 91.8568 17.9867 92.1856C18.3239 92.5145 18.7246 92.7711 19.1644 92.9399C20.1423 93.3149 21.2243 93.3149 22.2022 92.9399C22.6468 92.7716 23.0534 92.5166 23.3986 92.1898C23.7208 91.861 23.9756 91.4725 24.1487 91.046C24.5185 90.1487 24.5185 89.1416 24.1487 88.2444C23.9762 87.8123 23.72 87.4184 23.3948 87.0856L23.3798 87.0818ZM22.7235 90.8322C22.5193 91.2002 22.2203 91.5069 21.8576 91.7204C21.4949 91.934 21.0817 92.0466 20.6608 92.0466C20.2399 92.0466 19.8267 91.934 19.464 91.7204C19.1013 91.5069 18.8023 91.2002 18.5981 90.8322C18.3962 90.4637 18.2904 90.0503 18.2904 89.6302C18.2904 89.21 18.3962 88.7967 18.5981 88.4282C18.7979 88.0654 19.092 87.7635 19.4495 87.5544C19.8176 87.3453 20.2337 87.2353 20.6571 87.2353C21.0804 87.2353 21.4966 87.3453 21.8647 87.5544C22.2221 87.7635 22.5163 88.0654 22.716 88.4282C22.9179 88.7967 23.0237 89.21 23.0237 89.6302C23.0237 90.0503 22.9179 90.4637 22.716 90.8322H22.7235ZM39.799 90.6897L35.8011 86.133H34.826V93.1274H36.2136V88.5707L40.2265 93.1274H41.2054V86.133H39.814L39.799 90.6897ZM55.8956 89.8008C55.7331 89.6483 55.5545 89.5137 55.363 89.3995C55.1715 89.2787 54.9679 89.1782 54.7555 89.0995C54.5455 89.0208 54.3429 88.9382 54.1442 88.8557C53.9454 88.7732 53.7691 88.6945 53.6116 88.6232C53.4693 88.5601 53.3416 88.4682 53.2366 88.3532C53.143 88.2509 53.092 88.1168 53.0941 87.9781C53.0925 87.8556 53.1277 87.7354 53.1953 87.6331C53.261 87.533 53.3514 87.4516 53.4579 87.3968C53.5767 87.3372 53.7028 87.293 53.8329 87.2656C53.9634 87.2364 54.0968 87.2226 54.2304 87.2243C54.4627 87.2244 54.6928 87.2677 54.9093 87.3518C55.1148 87.4254 55.3044 87.5374 55.4681 87.6819L56.1919 86.6805C55.5844 86.2425 54.8518 86.0123 54.1029 86.0242C53.8054 86.0226 53.5094 86.0669 53.2253 86.1555C52.957 86.24 52.7038 86.3665 52.4753 86.5305C52.2527 86.6958 52.0695 86.9084 51.939 87.1531C51.7998 87.4083 51.7288 87.695 51.7327 87.9856C51.7356 88.3199 51.833 88.6465 52.0134 88.9278C52.1939 89.2092 52.4502 89.4338 52.7528 89.5758C52.9499 89.6808 53.1527 89.7747 53.3603 89.8571C53.6004 89.9546 53.8104 90.0409 53.9904 90.1084C54.1708 90.1804 54.3473 90.2618 54.5192 90.3521C54.6764 90.4301 54.8136 90.543 54.9205 90.6822C55.0139 90.8134 55.0625 90.9712 55.0593 91.1322C55.0619 91.2526 55.0369 91.372 54.9862 91.4812C54.9355 91.5905 54.8604 91.6866 54.7667 91.7623C54.5554 91.9341 54.2889 92.0233 54.0167 92.0135C53.696 92.0143 53.3793 91.9425 53.0903 91.8035C52.7996 91.6681 52.5374 91.4785 52.3177 91.2447L51.3801 92.1786C52.0853 92.8446 53.0167 93.2185 53.9867 93.2249C54.4021 93.2284 54.8132 93.14 55.1905 92.9661C55.5502 92.7994 55.8594 92.5407 56.0869 92.2161C56.3094 91.8973 56.4274 91.5172 56.4244 91.1285C56.4262 90.8715 56.3778 90.6167 56.2819 90.3784C56.2009 90.1615 56.0743 89.9645 55.9106 89.8008H55.8956ZM71.5422 90.2771C71.5609 90.5158 71.5285 90.7557 71.447 90.9808C71.3655 91.2059 71.2368 91.4109 71.0696 91.5823C70.7259 91.8704 70.2917 92.0283 69.8432 92.0283C69.3947 92.0283 68.9606 91.8704 68.6169 91.5823C68.4497 91.4109 68.321 91.2059 68.2395 90.9808C68.158 90.7557 68.1256 90.5158 68.1443 90.2771V86.133H66.7604V90.1796C66.7314 90.612 66.7991 91.0454 66.9587 91.4483C67.1183 91.8512 67.3657 92.2134 67.683 92.5086C67.9695 92.749 68.301 92.93 68.6581 93.0412C69.4292 93.2863 70.2573 93.2863 71.0284 93.0412C71.3868 92.9305 71.7196 92.7495 72.0072 92.5086C72.3258 92.2143 72.5744 91.8523 72.7347 91.4492C72.895 91.0462 72.963 90.6124 72.9336 90.1796V86.133H71.5459L71.5422 90.2771ZM85.1898 86.133H83.8021V93.1274H88.2238V91.9273H85.1898V86.133ZM97.281 87.3331H99.1862V93.1274H100.578V87.3331H102.475V86.133H97.281V87.3331ZM112.819 93.1274H114.203V86.133H112.819V93.1274ZM130.104 90.6897L126.088 86.133H125.113V93.1274H126.5V88.5707L130.513 93.1274H131.496V86.133H130.104V90.6897ZM145.481 88.7807V89.9808H147.333V91.481C146.876 91.8394 146.309 92.03 145.728 92.0211C145.405 92.0293 145.083 91.9725 144.783 91.854C144.482 91.7354 144.208 91.5576 143.977 91.331C143.746 91.1112 143.564 90.8455 143.441 90.5509C143.319 90.2564 143.26 89.9396 143.268 89.6208C143.265 89.1993 143.372 88.7843 143.579 88.4169C143.785 88.0545 144.084 87.754 144.446 87.5469C144.816 87.3333 145.237 87.2232 145.665 87.2281C145.99 87.2241 146.312 87.2854 146.613 87.4085C146.914 87.5315 147.187 87.7138 147.416 87.9444L148.309 87.0256C147.969 86.7022 147.571 86.4476 147.135 86.2755C146.669 86.0971 146.174 86.008 145.676 86.0129C145.152 86.0071 144.631 86.1013 144.142 86.2905C143.693 86.4571 143.283 86.7122 142.934 87.0406C142.604 87.3611 142.341 87.7434 142.158 88.1657C141.97 88.6106 141.874 89.0891 141.877 89.5721C141.875 90.0473 141.968 90.5182 142.151 90.9568C142.334 91.3955 142.603 91.793 142.942 92.1261C143.292 92.4551 143.706 92.7102 144.157 92.8761C144.647 93.0661 145.169 93.1616 145.695 93.1574C146.296 93.1611 146.892 93.0331 147.439 92.7824C147.937 92.5624 148.376 92.2284 148.721 91.8073V88.6982L145.481 88.7807Z" fill="white"/>
</g>
<defs>
<clipPath id="clip0">
<rect width="150" height="96" fill="white"/>
</clipPath>
</defs>
</svg>
