<svg width="40" height="40" viewBox="0 0 40 40" fill="none" xmlns="http://www.w3.org/2000/svg">
<path d="M6.3849 9.2402H30.117C30.8478 9.2402 31.4404 8.64767 31.4404 7.91682C31.4404 7.18597 30.8478 6.59344 30.117 6.59344H6.3849C5.65405 6.59344 5.06152 7.18597 5.06152 7.91682C5.06152 8.64767 5.65405 9.2402 6.3849 9.2402Z" fill="white"/>
<path d="M6.3849 14.8865H30.117C30.8478 14.8865 31.4404 14.294 31.4404 13.5631C31.4404 12.8323 30.8478 12.2397 30.117 12.2397H6.3849C5.65405 12.2397 5.06152 12.8323 5.06152 13.5631C5.06152 14.294 5.65405 14.8865 6.3849 14.8865Z" fill="white"/>
<path d="M18.9756 17.8861H6.3849C5.65405 17.8861 5.06152 18.4786 5.06152 19.2095C5.06152 19.9403 5.65405 20.5329 6.3849 20.5329H18.9756C19.7064 20.5329 20.299 19.9403 20.299 19.2095C20.299 18.4786 19.7064 17.8861 18.9756 17.8861Z" fill="white"/>
<path d="M39.9261 38.0063L36.4662 31.1558L37.8049 30.6215C38.1566 30.4812 38.4516 30.0753 38.4766 29.6975L38.5906 27.9798C38.6097 27.692 38.7556 27.2431 38.9092 26.9993L39.8263 25.5426C40.0281 25.2224 40.0281 24.7206 39.8264 24.4002L38.9092 22.9435C38.7558 22.6997 38.6098 22.2506 38.5907 21.9631L38.4768 20.2453C38.4553 19.9219 38.2356 19.5785 37.9525 19.3981V3.47317C37.9525 2.0137 36.7652 0.826416 35.3058 0.826416H2.64666C1.18728 0.826416 0 2.0137 0 3.47317V26.1446C0 27.6041 1.18728 28.7913 2.64666 28.7913H23.4641L23.5242 29.6976C23.5493 30.0754 23.8442 30.4812 24.1958 30.6215L25.4528 31.1232L21.9763 38.0063C21.8693 38.2182 21.898 38.3458 21.941 38.4156C21.9681 38.4599 22.0347 38.5339 22.175 38.5339C22.2451 38.5339 22.326 38.515 22.4152 38.4777L25.263 37.2854C25.333 37.2561 25.4163 37.2406 25.5039 37.2406C25.7131 37.2406 25.9263 37.3271 26.047 37.4608L27.415 38.9775C27.529 39.104 27.6702 39.1736 27.8123 39.1736C27.9999 39.1736 28.1682 39.0524 28.2623 38.8495L30.9424 33.068C30.9483 33.0679 30.954 33.0679 30.9599 33.0678L33.6401 38.8495C33.7342 39.0525 33.9024 39.1736 34.0901 39.1736C34.2322 39.1736 34.3734 39.104 34.4874 38.9774L35.8553 37.4609C35.9761 37.3271 36.1893 37.2406 36.3984 37.2406C36.4858 37.2406 36.5692 37.2561 36.6393 37.2854L39.4871 38.4777C39.5763 38.515 39.6571 38.5339 39.7273 38.5339C39.8676 38.5339 39.9341 38.4598 39.9613 38.4156C40.0044 38.3458 40.033 38.2182 39.9261 38.0063ZM2.64666 3.47317H35.3056L35.3058 17.9974L34.2712 16.7527C34.0823 16.5255 33.7365 16.3729 33.4108 16.3729C33.3314 16.3729 33.2556 16.382 33.1851 16.3999L31.5154 16.8248C31.2494 16.8925 30.7513 16.8925 30.4852 16.8248L28.8157 16.3999C28.7452 16.382 28.6693 16.3729 28.59 16.3729C28.2642 16.3729 27.9185 16.5255 27.7296 16.7527L26.6288 18.0772C26.4447 18.2988 26.0629 18.5762 25.7954 18.683L24.196 19.3214C23.8443 19.4618 23.5493 19.8675 23.5243 20.2453L23.4103 21.9631C23.3912 22.2508 23.2454 22.6997 23.0918 22.9435L22.1746 24.4002C21.9729 24.7205 21.9729 25.2224 22.1746 25.5426L22.5536 26.1445H2.64666V3.47317ZM31.0003 30.5982C27.8928 30.5982 25.3736 28.0791 25.3736 24.9714C25.3736 21.8638 27.8928 19.3447 31.0003 19.3447C34.1079 19.3447 36.6272 21.8638 36.6272 24.9714C36.6273 28.0791 34.1079 30.5982 31.0003 30.5982Z" fill="white"/>
</svg>
