<svg width="43" height="43" viewBox="0 0 43 43" fill="none" xmlns="http://www.w3.org/2000/svg">
<path opacity="0.4" d="M21.3279 3.7114C11.0189 3.7114 3.54883 12.1218 3.54883 21.4549C3.54883 24.4359 4.41826 27.5055 5.94421 30.309C6.22811 30.7703 6.26359 31.3559 6.06841 31.9059L4.87959 35.8805C4.61344 36.8386 5.42965 37.5484 6.33457 37.2645L9.91876 36.1998C10.8947 35.8805 11.6576 36.2886 12.5643 36.8386C15.1549 38.3646 18.3824 39.1453 21.2924 39.1453C30.0932 39.1453 39.0359 32.3495 39.0359 21.4017C39.0359 11.9621 31.4062 3.7114 21.3279 3.7114Z" fill="#6F75FF"/>
<path fill-rule="evenodd" clip-rule="evenodd" d="M21.2583 23.7442C19.9985 23.7264 18.9871 22.7151 18.9871 21.4553C18.9871 20.2132 20.0162 19.1841 21.2583 19.2018C22.5181 19.2018 23.5295 20.2132 23.5295 21.473C23.5295 22.7151 22.5181 23.7442 21.2583 23.7442ZM13.0778 23.7441C11.8358 23.7441 10.8066 22.715 10.8066 21.4729C10.8066 20.2131 11.818 19.2018 13.0778 19.2018C14.3376 19.2018 15.349 20.2131 15.349 21.4729C15.349 22.715 14.3376 23.7264 13.0778 23.7441ZM27.1664 21.473C27.1664 22.715 28.1778 23.7442 29.4376 23.7442C30.6974 23.7442 31.7088 22.715 31.7088 21.473C31.7088 20.2132 30.6974 19.2018 29.4376 19.2018C28.1778 19.2018 27.1664 20.2132 27.1664 21.473Z" fill="#6F75FF"/>
</svg>
