<svg width="40" height="40" viewBox="0 0 40 40" fill="none" xmlns="http://www.w3.org/2000/svg">
<path d="M27.4219 0.686218V7.81255H34.5477L27.4219 0.686218Z" fill="white"/>
<path d="M26.25 10.1562C25.6028 10.1562 25.0781 9.63156 25.0781 8.98438V0H8.28125C6.34273 0 4.76562 1.57711 4.76562 3.51562V36.4844C4.76562 38.4229 6.34273 40 8.28125 40H31.7188C33.6573 40 35.2344 38.4229 35.2344 36.4844V10.1562H26.25ZM15.4315 27.0623C15.8459 27.5595 15.7786 28.2984 15.2814 28.7127C15.0623 28.8952 14.7963 28.9844 14.5318 28.9844C14.196 28.9844 13.8627 28.8408 13.6309 28.5627L9.72469 23.8752C9.3625 23.4406 9.3625 22.8094 9.72469 22.3748L13.6309 17.6873C14.0453 17.1901 14.7842 17.123 15.2814 17.5373C15.7786 17.9516 15.8459 18.6905 15.4315 19.1877L12.1504 23.125L15.4315 27.0623ZM22.6742 18.8081L19.5492 28.1831C19.3855 28.6741 18.9283 28.9847 18.4376 28.9847C18.3148 28.9847 18.1898 28.9652 18.0669 28.9243C17.4529 28.7196 17.1211 28.0559 17.3257 27.442L20.4507 18.067C20.6554 17.453 21.3191 17.1213 21.933 17.3258C22.5471 17.5305 22.8789 18.1941 22.6742 18.8081ZM30.2752 23.8752L26.369 28.5627C26.1372 28.8409 25.8038 28.9844 25.4681 28.9844C25.2036 28.9844 24.9377 28.8953 24.7185 28.7127C24.2213 28.2984 24.1541 27.5595 24.5684 27.0623L27.8496 23.125L24.5685 19.1877C24.1541 18.6905 24.2214 17.9516 24.7186 17.5373C25.2155 17.123 25.9546 17.1901 26.3691 17.6873L30.2753 22.3748C30.6374 22.8094 30.6374 23.4406 30.2752 23.8752Z" fill="white"/>
</svg>
