<svg width="40" height="40" viewBox="0 0 40 40" fill="none" xmlns="http://www.w3.org/2000/svg">
<g clip-path="url(#clip0)">
<path d="M19.9993 16.6667C24.6017 16.6667 28.3327 12.9357 28.3327 8.33333C28.3327 3.73096 24.6017 0 19.9993 0C15.397 0 11.666 3.73096 11.666 8.33333C11.666 12.9357 15.397 16.6667 19.9993 16.6667Z" fill="white"/>
<path d="M17.7634 33.6184C16.3226 30.7354 17.1801 26.8175 19.7218 24.6992C20.8985 23.7287 22.3781 23.2012 23.9034 23.2084C25.4683 23.2462 26.9957 23.6944 28.333 24.5079C29.3595 23.9001 30.4896 23.4877 31.6663 23.2917V21.6667C31.6649 20.341 31.1377 19.0701 30.2003 18.1327C29.2629 17.1954 27.992 16.6681 26.6663 16.6667H13.333C12.0074 16.6681 10.7364 17.1954 9.79906 18.1327C8.86169 19.0701 8.33444 20.341 8.33301 21.6667V35C8.33301 35.442 8.5086 35.866 8.82116 36.1785C9.13372 36.4911 9.55765 36.6667 9.99967 36.6667H20.208C19.2212 35.8013 18.3938 34.7696 17.7634 33.6184Z" fill="white"/>
<path d="M35.8777 25.9787C34.9335 25.19 32.3565 23.7216 28.3327 26.4746C24.3081 23.7212 21.7315 25.1908 20.7877 25.9787C18.8498 27.5958 18.1627 30.6871 19.254 32.8729C21.004 36.3729 27.6744 39.7675 27.9573 39.9104C28.0736 39.969 28.202 39.9995 28.3323 39.9995C28.4625 39.9995 28.591 39.969 28.7073 39.9104C28.9902 39.7675 35.6606 36.3725 37.4106 32.8729C38.5035 30.6883 37.8156 27.5958 35.8777 25.9787ZM33.3327 31.6666C33.0031 31.6666 32.6808 31.5689 32.4068 31.3858C32.1327 31.2026 31.9191 30.9423 31.7929 30.6378C31.6668 30.3332 31.6338 29.9981 31.6981 29.6748C31.7624 29.3515 31.9211 29.0546 32.1542 28.8215C32.3873 28.5884 32.6843 28.4296 33.0076 28.3653C33.3309 28.301 33.666 28.334 33.9705 28.4602C34.2751 28.5863 34.5354 28.7999 34.7185 29.074C34.9016 29.3481 34.9994 29.6703 34.9994 30C34.9994 30.442 34.8238 30.8659 34.5112 31.1785C34.1987 31.4911 33.7747 31.6666 33.3327 31.6666Z" fill="white"/>
</g>
<defs>
<clipPath id="clip0">
<rect width="40" height="40" fill="white"/>
</clipPath>
</defs>
</svg>
