<svg width="473" height="192" viewBox="0 0 473 192" fill="none" xmlns="http://www.w3.org/2000/svg">
<circle cx="469.125" cy="4.24105" r="3.52358" transform="rotate(90 469.125 4.24105)" fill="white" fill-opacity="0.3"/>
<circle cx="469.125" cy="55.9198" r="3.52358" transform="rotate(90 469.125 55.9198)" fill="white" fill-opacity="0.3"/>
<circle cx="469.125" cy="107.599" r="3.52358" transform="rotate(90 469.125 107.599)" fill="white" fill-opacity="0.3"/>
<circle cx="469.125" cy="159.278" r="3.52358" transform="rotate(90 469.125 159.278)" fill="white" fill-opacity="0.3"/>
<circle cx="417.446" cy="4.24062" r="3.52358" transform="rotate(90 417.446 4.24062)" fill="white" fill-opacity="0.3"/>
<circle cx="417.446" cy="55.9198" r="3.52358" transform="rotate(90 417.446 55.9198)" fill="white" fill-opacity="0.3"/>
<circle cx="417.446" cy="107.599" r="3.52358" transform="rotate(90 417.446 107.599)" fill="white" fill-opacity="0.3"/>
<circle cx="417.446" cy="159.278" r="3.52358" transform="rotate(90 417.446 159.278)" fill="white" fill-opacity="0.3"/>
<circle cx="365.766" cy="4.24062" r="3.52358" transform="rotate(90 365.766 4.24062)" fill="white" fill-opacity="0.3"/>
<circle cx="365.766" cy="55.9198" r="3.52358" transform="rotate(90 365.766 55.9198)" fill="white" fill-opacity="0.3"/>
<circle cx="365.766" cy="107.599" r="3.52358" transform="rotate(90 365.766 107.599)" fill="white" fill-opacity="0.3"/>
<circle cx="365.766" cy="159.278" r="3.52358" transform="rotate(90 365.766 159.278)" fill="white" fill-opacity="0.3"/>
<circle cx="314.088" cy="4.24062" r="3.52358" transform="rotate(90 314.088 4.24062)" fill="white" fill-opacity="0.3"/>
<circle cx="314.088" cy="55.9198" r="3.52358" transform="rotate(90 314.088 55.9198)" fill="white" fill-opacity="0.3"/>
<circle cx="314.088" cy="107.599" r="3.52358" transform="rotate(90 314.088 107.599)" fill="white" fill-opacity="0.3"/>
<circle cx="314.088" cy="159.278" r="3.52358" transform="rotate(90 314.088 159.278)" fill="white" fill-opacity="0.3"/>
<circle cx="262.408" cy="4.24062" r="3.52358" transform="rotate(90 262.408 4.24062)" fill="white" fill-opacity="0.3"/>
<circle cx="262.408" cy="55.9198" r="3.52358" transform="rotate(90 262.408 55.9198)" fill="white" fill-opacity="0.3"/>
<circle cx="262.408" cy="107.599" r="3.52358" transform="rotate(90 262.408 107.599)" fill="white" fill-opacity="0.3"/>
<circle cx="262.408" cy="159.278" r="3.52358" transform="rotate(90 262.408 159.278)" fill="white" fill-opacity="0.3"/>
<circle cx="210.729" cy="4.24062" r="3.52358" transform="rotate(90 210.729 4.24062)" fill="white" fill-opacity="0.3"/>
<circle cx="210.729" cy="55.9198" r="3.52358" transform="rotate(90 210.729 55.9198)" fill="white" fill-opacity="0.3"/>
<circle cx="210.729" cy="107.599" r="3.52358" transform="rotate(90 210.729 107.599)" fill="white" fill-opacity="0.3"/>
<circle cx="210.729" cy="159.278" r="3.52358" transform="rotate(90 210.729 159.278)" fill="white" fill-opacity="0.3"/>
<circle cx="159.05" cy="4.24062" r="3.52358" transform="rotate(90 159.05 4.24062)" fill="white" fill-opacity="0.3"/>
<circle cx="159.05" cy="55.9198" r="3.52358" transform="rotate(90 159.05 55.9198)" fill="white" fill-opacity="0.3"/>
<circle cx="159.05" cy="107.599" r="3.52358" transform="rotate(90 159.05 107.599)" fill="white" fill-opacity="0.3"/>
<circle cx="159.05" cy="159.278" r="3.52358" transform="rotate(90 159.05 159.278)" fill="white" fill-opacity="0.3"/>
<circle cx="107.371" cy="55.9198" r="3.52358" transform="rotate(90 107.371 55.9198)" fill="white" fill-opacity="0.3"/>
<circle cx="107.371" cy="107.599" r="3.52358" transform="rotate(90 107.371 107.599)" fill="white" fill-opacity="0.3"/>
<circle cx="107.371" cy="159.278" r="3.52358" transform="rotate(90 107.371 159.278)" fill="white" fill-opacity="0.3"/>
<circle cx="55.6913" cy="4.24062" r="3.52358" transform="rotate(90 55.6913 4.24062)" fill="white" fill-opacity="0.3"/>
<circle cx="55.6913" cy="55.9198" r="3.52358" transform="rotate(90 55.6913 55.9198)" fill="white" fill-opacity="0.3"/>
<circle cx="55.6913" cy="107.599" r="3.52358" transform="rotate(90 55.6913 107.599)" fill="white" fill-opacity="0.3"/>
<circle cx="55.6913" cy="159.278" r="3.52358" transform="rotate(90 55.6913 159.278)" fill="white" fill-opacity="0.3"/>
<circle cx="4.01255" cy="4.24062" r="3.52358" transform="rotate(90 4.01255 4.24062)" fill="white" fill-opacity="0.3"/>
<circle cx="4.01255" cy="55.9198" r="3.52358" transform="rotate(90 4.01255 55.9198)" fill="white" fill-opacity="0.3"/>
<circle cx="4.01255" cy="107.599" r="3.52358" transform="rotate(90 4.01255 107.599)" fill="white" fill-opacity="0.3"/>
<circle cx="4.01255" cy="159.278" r="3.52358" transform="rotate(90 4.01255 159.278)" fill="white" fill-opacity="0.3"/>
<circle cx="107.371" cy="4.24062" r="3.52358" transform="rotate(90 107.371 4.24062)" fill="white" fill-opacity="0.3"/>
</svg>
