<svg width="88" height="76" viewBox="0 0 88 76" fill="none" xmlns="http://www.w3.org/2000/svg">
<path d="M74.8193 12.9939C66.5989 4.77428 55.6772 0.247559 44.066 0.247559C32.4547 0.247559 21.533 4.77428 13.3126 12.9941C12.3171 13.9897 12.3183 15.6041 13.3126 16.5986L21.0329 24.3194C22.0284 25.3149 23.6432 25.3139 24.6378 24.3192C29.8299 19.1257 36.7297 16.2654 44.066 16.2654C51.4022 16.2654 58.302 19.1257 63.4943 24.319C63.9723 24.797 64.6207 25.0658 65.2967 25.0658C66.3981 25.0658 67.046 24.3724 67.099 24.3192L74.8193 16.5985C75.8148 15.6031 75.8138 13.9885 74.8193 12.9939Z" fill="url(#paint0_linear)"/>
<path d="M74.8178 12.9939C66.5975 4.77428 55.6757 0.247559 44.0645 0.247559V16.2656C51.4007 16.2656 58.3005 19.1259 63.4928 24.3192C63.9708 24.7972 64.6192 25.066 65.2952 25.066C66.3966 25.066 67.0445 24.3726 67.0975 24.3194L74.8178 16.5986C75.8133 15.6031 75.8123 13.9885 74.8178 12.9939Z" fill="#BCC0FD"/>
<path d="M24.6359 63.1756C22.4429 60.9828 16.6207 54.4981 16.5825 43.7422C16.5838 36.4089 19.4438 29.5112 24.6359 24.3196L13.3111 12.9941C5.09134 21.2133 0.564453 32.1352 0.564453 43.7476C0.564453 55.3601 5.09134 66.282 13.3111 74.5011C13.8088 74.9988 14.461 75.2476 15.1133 75.2476C15.7657 75.2476 16.418 74.9986 16.9157 74.5009L24.6359 66.7802C25.6313 65.7848 25.6313 64.171 24.6359 63.1756Z" fill="#C5C8FF"/>
<path d="M63.4926 63.1756C65.6857 60.9828 71.5079 54.4981 71.5461 43.7422C71.5447 36.4089 68.6848 29.5112 63.4926 24.3196L74.8174 12.9941C83.0372 21.2133 87.5641 32.1352 87.5641 43.7476C87.5641 55.3601 83.0372 66.282 74.8174 74.5011C74.3197 74.9988 73.6676 75.2476 73.0152 75.2476C72.3629 75.2476 71.7106 74.9986 71.2129 74.5009L63.4926 66.7802C62.4972 65.7848 62.4972 64.171 63.4926 63.1756Z" fill="#BCC0FD"/>
<path d="M16.5825 43.7422C16.5838 36.4089 19.4438 29.5112 24.6359 24.3196L13.3111 12.9941C5.09134 21.2133 0.564453 32.1352 0.564453 43.7476L16.5825 43.7422Z" fill="#C5C8FF"/>
<path d="M63.4926 63.1754C65.6857 60.9826 71.5079 54.4978 71.5461 43.7419L87.5641 43.7474C87.5641 55.3598 83.0372 66.2817 74.8174 74.5009C74.3197 74.9986 73.6676 75.2473 73.0152 75.2473C72.3629 75.2473 71.7106 74.9984 71.2129 74.5007L63.4926 66.78C62.4972 65.7846 62.4972 64.1708 63.4926 63.1754Z" fill="#BCC0FD"/>
<path d="M34.1533 44.5317C32.5163 48.6332 34.5214 53.3018 38.623 54.9389C43.8045 57.0069 66.5032 60.7305 69.0745 61.1482C70.2537 61.3399 71.4076 60.6867 71.8506 59.5772C72.2934 58.4677 71.9063 57.1995 70.9191 56.5264C68.7669 55.059 49.742 42.13 44.5605 40.062C40.459 38.425 35.7904 40.4301 34.1533 44.5317Z" fill="#6F75FF"/>
<path d="M34.1527 44.5313L71.8498 59.5767C72.2926 58.4673 71.9055 57.199 70.9183 56.526C68.7662 55.0586 49.7413 42.1296 44.5598 40.0616C40.4585 38.4247 35.7898 40.4298 34.1527 44.5313Z" fill="#6F75FF"/>
<defs>
<linearGradient id="paint0_linear" x1="17.2319" y1="25.2475" x2="50.5652" y2="10.2476" gradientUnits="userSpaceOnUse">
<stop stop-color="#C5C8FF"/>
<stop offset="1" stop-color="#9EA2FC" stop-opacity="0.56"/>
</linearGradient>
</defs>
</svg>
