<svg width="76" height="76" viewBox="0 0 76 76" fill="none" xmlns="http://www.w3.org/2000/svg">
<g clip-path="url(#clip0)">
<path d="M38.2593 23.4456C30.3239 23.4456 23.8672 29.9012 23.8672 37.8376C23.8672 45.7741 30.3239 52.2297 38.2593 52.2297C46.1946 52.2297 52.6514 45.7741 52.6514 37.8376C52.6514 29.9012 46.1946 23.4456 38.2593 23.4456Z" fill="#6F75FF"/>
<path d="M36.0615 14.4986V19.1786C36.7825 19.0951 37.5161 19.051 38.2588 19.051C39.0015 19.051 39.7351 19.0951 40.4561 19.1786V14.4986C43.3829 13.5653 45.5098 10.8216 45.5098 7.58862C45.5098 3.5912 42.2562 0.337646 38.2588 0.337646C34.2614 0.337646 31.0078 3.5912 31.0078 7.58862C31.0078 10.8216 33.1347 13.5653 36.0615 14.4986Z" fill="#C5C8FF"/>
<path d="M40.4561 61.1766V56.4966C39.7351 56.5801 39.0015 56.6242 38.2588 56.6242C37.5161 56.6242 36.7825 56.5801 36.0615 56.4966V61.1766C33.1347 62.1099 31.0078 64.8536 31.0078 68.0866C31.0078 72.084 34.2614 75.3376 38.2588 75.3376C42.2562 75.3376 45.5098 72.084 45.5098 68.0866C45.5098 64.8536 43.3829 62.1099 40.4561 61.1766Z" fill="#C5C8FF"/>
<path d="M16.8695 23.6962C18.015 23.6962 19.1606 23.4267 20.202 22.8877L23.5185 26.2036C24.4294 25.0512 25.4726 24.008 26.625 23.0971L23.3091 19.7806C24.7195 17.0517 24.283 13.6059 21.9964 11.3211C20.5825 9.9072 18.7268 9.19995 16.8695 9.19995C15.0121 9.19995 13.1559 9.9072 11.7425 11.3211C8.91525 14.1484 8.91525 18.7478 11.7425 21.575C13.1559 22.9884 15.0132 23.6962 16.8695 23.6962Z" fill="#C5C8FF"/>
<path d="M56.3156 52.7876L52.9991 49.4717C52.0881 50.6241 51.045 51.6672 49.8926 52.5782L53.2085 55.8947C51.798 58.6235 52.2346 62.0693 54.5211 64.3541C55.9351 65.7681 57.7907 66.4736 59.6481 66.4736C61.5043 66.4736 63.3617 65.7681 64.775 64.3541C67.6023 61.5269 67.6023 56.9275 64.775 54.1002C62.4902 51.8137 59.0444 51.3771 56.3156 52.7876Z" fill="#C5C8FF"/>
<path d="M14.9197 40.0349H19.5998C19.5162 39.3139 19.4722 38.5804 19.4722 37.8376C19.4722 37.0949 19.5162 36.3614 19.5998 35.6404H14.9197C13.9864 32.7136 11.2427 30.5867 8.00977 30.5867C4.01234 30.5867 0.758789 33.8402 0.758789 37.8376C0.758789 41.8351 4.01234 45.0886 8.00977 45.0886C11.2427 45.0886 13.9864 42.9617 14.9197 40.0349Z" fill="#C5C8FF"/>
<path d="M68.508 30.5867C65.275 30.5867 62.5313 32.7136 61.598 35.6404H56.918C57.0015 36.3614 57.0456 37.0949 57.0456 37.8376C57.0456 38.5804 57.0015 39.3139 56.918 40.0349H61.598C62.5313 42.9617 65.275 45.0886 68.508 45.0886C72.5054 45.0886 75.7589 41.8351 75.7589 37.8376C75.7589 33.8402 72.5054 30.5867 68.508 30.5867Z" fill="#C5C8FF"/>
<path d="M23.5182 49.4717L20.2017 52.7876C17.4729 51.3771 14.0271 51.8137 11.7423 54.1002C10.3283 55.5142 9.62109 57.3698 9.62109 59.2272C9.62109 61.0846 10.3283 62.9408 11.7423 64.3541C13.1556 65.7681 15.013 66.4736 16.8692 66.4736C18.7266 66.4736 20.5822 65.7681 21.9962 64.3541C24.2827 62.0693 24.7193 58.6235 23.3088 55.8947L26.6247 52.5782C25.4723 51.6672 24.4292 50.6241 23.5182 49.4717Z" fill="#C5C8FF"/>
<path d="M52.9991 26.2036L56.3156 22.8877C57.357 23.4267 58.5025 23.6962 59.6481 23.6962C61.5043 23.6962 63.3617 22.9884 64.775 21.575C67.6023 18.7478 67.6023 14.1484 64.775 11.3211C61.9478 8.49387 57.3484 8.49387 54.5211 11.3211C53.1078 12.7345 52.4017 14.5907 52.4017 16.4464C52.4017 17.5919 52.6695 18.7392 53.2085 19.7806L49.8926 23.0971C51.045 24.0081 52.0881 25.0512 52.9991 26.2036Z" fill="#C5C8FF"/>
</g>
<defs>
<clipPath id="clip0">
<rect width="75" height="75" fill="white" transform="translate(0.758789 0.337646)"/>
</clipPath>
</defs>
</svg>
