<svg width="1440" height="866" viewBox="0 0 1440 866" fill="none" xmlns="http://www.w3.org/2000/svg">
<g clip-path="url(#clip0)">
<rect width="1440" height="867" transform="matrix(-1 0 0 1 1440 0)" fill="url(#paint0_linear)"/>
<g filter="url(#filter0_d)">
<circle r="197.334" transform="matrix(-1 0 0 1 1376.84 583.334)" fill="url(#paint1_linear)"/>
</g>
<g filter="url(#filter1_f)">
<ellipse rx="323.5" ry="324.5" transform="matrix(-1 0 0 1 456.5 131.5)" fill="#6297FF" fill-opacity="0.35"/>
</g>
<g filter="url(#filter2_f)">
<ellipse rx="182.285" ry="182.849" transform="matrix(-1 0 0 1 772.61 347.212)" fill="#786AFF" fill-opacity="0.2"/>
</g>
<g filter="url(#filter3_f)">
<ellipse rx="182.285" ry="182.849" transform="matrix(-1 0 0 1 33.0545 617.199)" fill="#786AFF" fill-opacity="0.2"/>
</g>
<g filter="url(#filter4_f)">
<ellipse rx="231.128" ry="231.842" transform="matrix(-1 0 0 1 689.441 828.087)" fill="#E9EEFE"/>
</g>
<g filter="url(#filter5_f)">
<circle r="128.5" transform="matrix(-1 0 0 1 1425.5 37.5)" fill="#6297FF" fill-opacity="0.7"/>
</g>
<g filter="url(#filter6_f)">
<circle r="128.5" transform="matrix(-1 0 0 1 1376.84 762.432)" fill="white"/>
</g>
<g filter="url(#filter7_b)">
<path d="M1297 470.461C1297 667.972 1136.89 828.087 939.374 828.087C741.863 828.087 581.748 667.972 581.748 470.461C581.748 272.95 741.863 112.835 939.374 112.835C1136.89 112.835 1297 272.95 1297 470.461ZM713.136 470.461C713.136 595.409 814.426 696.699 939.374 696.699C1064.32 696.699 1165.61 595.409 1165.61 470.461C1165.61 345.513 1064.32 244.223 939.374 244.223C814.426 244.223 713.136 345.513 713.136 470.461Z" fill="url(#paint2_linear)"/>
</g>
<g filter="url(#filter8_f)">
<circle r="217.333" transform="matrix(-1 0 0 1 1366.17 855.667)" fill="#6F74FF" fill-opacity="0.25"/>
</g>
</g>
<defs>
<filter id="filter0_d" x="1174.5" y="383" width="404.668" height="404.668" filterUnits="userSpaceOnUse" color-interpolation-filters="sRGB">
<feFlood flood-opacity="0" result="BackgroundImageFix"/>
<feColorMatrix in="SourceAlpha" type="matrix" values="0 0 0 0 0 0 0 0 0 0 0 0 0 0 0 0 0 0 127 0" result="hardAlpha"/>
<feOffset dy="2"/>
<feGaussianBlur stdDeviation="2.5"/>
<feColorMatrix type="matrix" values="0 0 0 0 0.368627 0 0 0 0 0.615686 0 0 0 0 1 0 0 0 0.2 0"/>
<feBlend mode="normal" in2="BackgroundImageFix" result="effect1_dropShadow"/>
<feBlend mode="normal" in="SourceGraphic" in2="effect1_dropShadow" result="shape"/>
</filter>
<filter id="filter1_f" x="-85.5714" y="-411.571" width="1084.14" height="1086.14" filterUnits="userSpaceOnUse" color-interpolation-filters="sRGB">
<feFlood flood-opacity="0" result="BackgroundImageFix"/>
<feBlend mode="normal" in="SourceGraphic" in2="BackgroundImageFix" result="shape"/>
<feGaussianBlur stdDeviation="109.286" result="effect1_foregroundBlur"/>
</filter>
<filter id="filter2_f" x="371.754" y="-54.2081" width="801.713" height="802.84" filterUnits="userSpaceOnUse" color-interpolation-filters="sRGB">
<feFlood flood-opacity="0" result="BackgroundImageFix"/>
<feBlend mode="normal" in="SourceGraphic" in2="BackgroundImageFix" result="shape"/>
<feGaussianBlur stdDeviation="109.286" result="effect1_foregroundBlur"/>
</filter>
<filter id="filter3_f" x="-367.802" y="215.779" width="801.713" height="802.84" filterUnits="userSpaceOnUse" color-interpolation-filters="sRGB">
<feFlood flood-opacity="0" result="BackgroundImageFix"/>
<feBlend mode="normal" in="SourceGraphic" in2="BackgroundImageFix" result="shape"/>
<feGaussianBlur stdDeviation="109.286" result="effect1_foregroundBlur"/>
</filter>
<filter id="filter4_f" x="239.742" y="377.673" width="899.399" height="900.828" filterUnits="userSpaceOnUse" color-interpolation-filters="sRGB">
<feFlood flood-opacity="0" result="BackgroundImageFix"/>
<feBlend mode="normal" in="SourceGraphic" in2="BackgroundImageFix" result="shape"/>
<feGaussianBlur stdDeviation="109.286" result="effect1_foregroundBlur"/>
</filter>
<filter id="filter5_f" x="1147" y="-241" width="557" height="557" filterUnits="userSpaceOnUse" color-interpolation-filters="sRGB">
<feFlood flood-opacity="0" result="BackgroundImageFix"/>
<feBlend mode="normal" in="SourceGraphic" in2="BackgroundImageFix" result="shape"/>
<feGaussianBlur stdDeviation="75" result="effect1_foregroundBlur"/>
</filter>
<filter id="filter6_f" x="1098.34" y="483.932" width="557" height="557" filterUnits="userSpaceOnUse" color-interpolation-filters="sRGB">
<feFlood flood-opacity="0" result="BackgroundImageFix"/>
<feBlend mode="normal" in="SourceGraphic" in2="BackgroundImageFix" result="shape"/>
<feGaussianBlur stdDeviation="75" result="effect1_foregroundBlur"/>
</filter>
<filter id="filter7_b" x="575.748" y="106.835" width="727.252" height="727.252" filterUnits="userSpaceOnUse" color-interpolation-filters="sRGB">
<feFlood flood-opacity="0" result="BackgroundImageFix"/>
<feGaussianBlur in="BackgroundImage" stdDeviation="3"/>
<feComposite in2="SourceAlpha" operator="in" result="effect1_backgroundBlur"/>
<feBlend mode="normal" in="SourceGraphic" in2="effect1_backgroundBlur" result="shape"/>
</filter>
<filter id="filter8_f" x="998.833" y="488.333" width="734.667" height="734.667" filterUnits="userSpaceOnUse" color-interpolation-filters="sRGB">
<feFlood flood-opacity="0" result="BackgroundImageFix"/>
<feBlend mode="normal" in="SourceGraphic" in2="BackgroundImageFix" result="shape"/>
<feGaussianBlur stdDeviation="75" result="effect1_foregroundBlur"/>
</filter>
<linearGradient id="paint0_linear" x1="720" y1="0" x2="720" y2="867" gradientUnits="userSpaceOnUse">
<stop stop-color="#EBF1FF"/>
<stop offset="1" stop-color="#EDEBFF"/>
</linearGradient>
<linearGradient id="paint1_linear" x1="314.09" y1="366.712" x2="167.734" y2="-59.2002" gradientUnits="userSpaceOnUse">
<stop stop-color="#6E7FFF"/>
<stop offset="1" stop-color="#668FFF" stop-opacity="0"/>
</linearGradient>
<linearGradient id="paint2_linear" x1="939.374" y1="112.835" x2="939.374" y2="828.087" gradientUnits="userSpaceOnUse">
<stop stop-color="white" stop-opacity="0.28"/>
<stop offset="1" stop-color="white" stop-opacity="0.15"/>
</linearGradient>
<clipPath id="clip0">
<rect width="1440" height="867" fill="white" transform="matrix(-1 0 0 1 1440 0)"/>
</clipPath>
</defs>
</svg>
