<svg width="43" height="44" viewBox="0 0 43 44" fill="none" xmlns="http://www.w3.org/2000/svg">
<path opacity="0.4" d="M20.8953 39.2922C16.8443 36.7901 13.0786 33.8397 9.667 30.4952C7.25852 28.1072 5.41915 25.1914 4.28942 21.9706C2.27086 15.6893 4.62059 8.51071 11.1809 6.37956C14.6436 5.29212 18.4095 5.95967 21.3053 8.17421C24.2021 5.96215 27.9668 5.29481 31.4296 6.37956C37.99 8.51071 40.3555 15.6893 38.3369 21.9706C37.2164 25.1884 35.3879 28.1039 32.9909 30.4952C29.5761 33.8361 25.8109 36.7861 21.7626 39.2922L21.3211 39.5806L20.8953 39.2922Z" fill="#5F9DFF"/>
<path d="M21.3117 39.5807L20.8949 39.2923C16.839 36.7904 13.068 33.8401 9.65087 30.4953C7.23097 28.1106 5.38064 25.1945 4.24175 21.9707C2.23895 15.6894 4.58869 8.5108 11.149 6.37965C14.6117 5.29221 18.4273 5.96027 21.3117 8.19335V39.5807Z" fill="#5F9DFF"/>
<path d="M32.3472 18.287C31.9908 18.264 31.6589 18.0859 31.4292 17.7943C31.1996 17.5027 31.0923 17.1233 31.1327 16.7449C31.1712 15.4987 30.4621 14.3644 29.3686 13.923C28.6752 13.7337 28.2553 12.9828 28.4287 12.2422C28.5933 11.5135 29.2757 11.0604 29.9614 11.2245C30.048 11.2388 30.1314 11.2702 30.2073 11.317C32.3998 12.1607 33.8194 14.4316 33.7064 16.9145C33.7029 17.2909 33.5561 17.6495 33.2999 17.9083C33.0436 18.167 32.6998 18.3037 32.3472 18.287Z" fill="#5F9DFF"/>
</svg>
