<svg width="120" height="72" viewBox="0 0 120 72" fill="none" xmlns="http://www.w3.org/2000/svg">
<g clip-path="url(#clip0)">
<path d="M60.3397 30.265C59.8215 29.1809 57.9586 27.6761 56.1609 26.2214C55.1594 25.4102 54.2105 24.644 53.607 24.0381C53.5328 23.9639 53.4389 23.9125 53.3365 23.8899C53.234 23.8673 53.1272 23.8744 53.0287 23.9104C52.6556 24.0431 52.4253 24.1608 52.245 24.2284C52.0124 24.35 51.756 24.4192 51.4938 24.4312C51.4119 24.4402 51.333 24.4674 51.2628 24.5107C51.1927 24.554 51.133 24.6124 51.0882 24.6816C50.3096 25.8483 49.5008 25.7507 48.96 25.5679C48.7873 25.5103 48.7572 25.4377 48.7397 25.3676C48.6245 24.8819 49.2054 23.7527 49.9615 22.999C51.7567 21.2013 52.6806 20.7456 54.6361 21.6269C56.8595 22.6109 59.0878 23.3946 59.1054 23.3946C59.1749 23.4226 59.2493 23.4362 59.3242 23.4345C59.3991 23.4329 59.4728 23.416 59.541 23.385C59.6092 23.354 59.6704 23.3095 59.7208 23.2541C59.7713 23.1988 59.81 23.1338 59.8346 23.063C59.8592 22.9923 59.8692 22.9173 59.864 22.8426C59.8587 22.7678 59.8384 22.695 59.8041 22.6284C59.7699 22.5617 59.7225 22.5028 59.6648 22.455C59.6071 22.4073 59.5403 22.3717 59.4684 22.3505C59.4459 22.3505 57.2676 21.5819 55.0943 20.5979C52.5605 19.4662 51.1709 20.2123 49.1854 22.1978C48.4342 22.9489 47.4027 24.4838 47.6681 25.603C47.7237 25.8388 47.8408 26.0558 48.0075 26.2317C48.1742 26.4076 48.3845 26.5362 48.617 26.6045C49.8689 27.0176 51.0106 26.622 51.8719 25.4928C52.1603 25.4493 52.44 25.3605 52.7007 25.2299C52.8058 25.1848 52.926 25.1297 53.0888 25.0646C53.7197 25.658 54.5735 26.3491 55.4699 27.0677C57.0848 28.4022 58.9251 29.8819 59.3382 30.7432C59.4153 30.8781 59.4411 31.0362 59.4107 31.1885C59.3803 31.3409 59.2959 31.4771 59.173 31.572C59.0864 31.6607 58.975 31.7211 58.8534 31.7452C58.7319 31.7694 58.6058 31.7561 58.4919 31.7072C58.4059 31.648 58.3049 31.6144 58.2005 31.6104C58.0962 31.6064 57.9929 31.6321 57.9026 31.6846C57.8123 31.7371 57.7388 31.8142 57.6907 31.9068C57.6425 31.9995 57.6217 32.1039 57.6306 32.208C57.6305 32.3419 57.59 32.4728 57.5146 32.5835C57.4391 32.6942 57.3321 32.7797 57.2075 32.8289C57.0789 32.9091 56.9311 32.9532 56.7796 32.9567C56.6281 32.9602 56.4784 32.923 56.3462 32.8489C56.2709 32.778 56.1771 32.7297 56.0756 32.7096C55.9741 32.6895 55.8691 32.6984 55.7724 32.7352C55.6757 32.772 55.5914 32.8354 55.529 32.9179C55.4666 33.0005 55.4288 33.0989 55.4198 33.202C55.3975 33.3886 55.3252 33.5657 55.2107 33.7146C55.0961 33.8636 54.9434 33.9788 54.7688 34.0482C54.6648 34.0955 54.5492 34.1114 54.4363 34.0941C54.3234 34.0767 54.2179 34.0269 54.1328 33.9506C54.0661 33.889 53.9851 33.845 53.8971 33.8223C53.8092 33.7996 53.717 33.799 53.6288 33.8206C53.5405 33.8421 53.459 33.8852 53.3914 33.9459C53.3239 34.0065 53.2724 34.083 53.2415 34.1684C53.2215 34.2235 53.1739 34.3562 52.6556 34.3562C52.1755 34.3071 51.713 34.1486 51.3036 33.893C50.9155 33.6426 48.4843 31.8249 46.3836 30.0672C46.0882 29.8168 45.5774 29.286 45.1317 28.8153C44.7336 28.3972 44.3681 28.0191 44.1803 27.8589C44.0674 27.7734 43.926 27.7345 43.7853 27.7501C43.6446 27.7657 43.5152 27.8347 43.4238 27.9428C43.3324 28.0509 43.2859 28.1899 43.2938 28.3313C43.3018 28.4726 43.3637 28.6055 43.4667 28.7027C43.637 28.8479 43.9675 29.2034 44.333 29.579C44.8338 30.0948 45.3345 30.6256 45.6775 30.9135C47.7357 32.6361 50.2069 34.4939 50.7001 34.8194C51.2912 35.1906 51.9645 35.4107 52.6606 35.4604C53.1083 35.49 53.552 35.3595 53.9125 35.0923C54.3149 35.2498 54.762 35.2498 55.1644 35.0923C55.6653 34.8924 56.0747 34.5143 56.3136 34.0307C56.7854 34.1217 57.274 34.0511 57.7007 33.8304C58.1153 33.6325 58.4431 33.2896 58.6221 32.8665C59.0895 32.8848 59.5457 32.7204 59.8941 32.4083C60.2006 32.1546 60.4117 31.8043 60.4927 31.4148C60.5737 31.0253 60.5197 30.6198 60.3397 30.265Z" fill="#DF6052"/>
<path d="M50.4496 21.1133H45.4771C45.3371 21.1227 45.2059 21.185 45.1101 21.2875C45.0142 21.39 44.9609 21.5251 44.9609 21.6654C44.9609 21.8057 45.0142 21.9408 45.1101 22.0433C45.2059 22.1458 45.3371 22.208 45.4771 22.2175H50.4496C50.5896 22.208 50.7208 22.1458 50.8166 22.0433C50.9124 21.9408 50.9657 21.8057 50.9657 21.6654C50.9657 21.5251 50.9124 21.39 50.8166 21.2875C50.7208 21.185 50.5896 21.1227 50.4496 21.1133Z" fill="#DF6052"/>
<path d="M61.955 29.0903C61.9146 29.03 61.8628 28.9783 61.8024 28.938C61.742 28.8978 61.6743 28.87 61.6031 28.856C61.5319 28.842 61.4587 28.8423 61.3876 28.8567C61.3165 28.8711 61.2489 28.8995 61.1888 28.9401L59.5739 30.0242C59.4802 30.0919 59.4101 30.1873 59.3734 30.2969C59.3367 30.4065 59.3352 30.5248 59.3692 30.6353C59.4031 30.7457 59.4708 30.8428 59.5628 30.9128C59.6547 30.9829 59.7663 31.0223 59.8818 31.0257C59.9917 31.0259 60.0991 30.9927 60.1898 30.9306L61.8047 29.8464C61.9232 29.7647 62.0052 29.64 62.0332 29.4988C62.0613 29.3577 62.0332 29.2111 61.955 29.0903Z" fill="#DF6052"/>
<path d="M58.5249 31.727C58.1293 31.414 56.3617 29.6038 55.27 28.472C55.2235 28.4099 55.1644 28.3584 55.0965 28.3207C55.0287 28.283 54.9537 28.2601 54.8764 28.2535C54.799 28.2468 54.7212 28.2566 54.6479 28.2821C54.5747 28.3077 54.5076 28.3484 54.4512 28.4016C54.3947 28.4549 54.3502 28.5194 54.3204 28.5911C54.2907 28.6628 54.2764 28.7399 54.2785 28.8175C54.2807 28.895 54.2992 28.9713 54.3328 29.0412C54.3665 29.1111 54.4145 29.1731 54.4738 29.2232C54.7567 29.5186 57.2605 32.1301 57.8439 32.5883C57.9404 32.666 58.0605 32.7084 58.1844 32.7085C58.2683 32.7078 58.351 32.6884 58.4264 32.6516C58.5018 32.6147 58.568 32.5614 58.6201 32.4956C58.7086 32.3808 58.7482 32.2357 58.7304 32.0918C58.7126 31.9479 58.6388 31.8168 58.5249 31.727Z" fill="#DF6052"/>
<path d="M56.3191 32.8338C55.6581 32.3055 53.9955 30.5379 53.62 30.1297C53.5707 30.0761 53.5113 30.0328 53.4452 30.0022C53.3791 29.9715 53.3076 29.9542 53.2349 29.9512C53.1621 29.9481 53.0894 29.9595 53.0211 29.9845C52.9527 30.0096 52.8899 30.0479 52.8363 30.0972C52.7827 30.1465 52.7393 30.2059 52.7087 30.272C52.6781 30.3381 52.6607 30.4095 52.6577 30.4823C52.6547 30.5551 52.666 30.6277 52.6911 30.6961C52.7161 30.7645 52.7544 30.8273 52.8037 30.8809C52.8238 30.9009 54.8068 33.0442 55.628 33.7002C55.7266 33.7775 55.8482 33.8198 55.9735 33.8203C56.0878 33.8199 56.1992 33.7841 56.2923 33.7179C56.3855 33.6516 56.4558 33.5582 56.4937 33.4503C56.5316 33.3425 56.5351 33.2256 56.5038 33.1156C56.4726 33.0057 56.408 32.9081 56.3191 32.8363V32.8338Z" fill="#DF6052"/>
<path d="M54.121 33.945C53.3323 33.2814 51.7223 31.5663 51.4069 31.2283C51.3045 31.1331 51.1699 31.0801 51.0302 31.0801C50.8904 31.08 50.7558 31.1329 50.6533 31.228C50.5509 31.3231 50.4883 31.4535 50.4781 31.5929C50.4678 31.7323 50.5107 31.8704 50.5981 31.9795C51.0513 32.4627 52.6012 34.0977 53.4074 34.7862C53.5196 34.8809 53.6648 34.927 53.8111 34.9146C53.9574 34.9021 54.0927 34.8321 54.1873 34.7199C54.2819 34.6076 54.3281 34.4624 54.3157 34.3162C54.3032 34.1699 54.2332 34.0346 54.121 33.9399V33.945Z" fill="#DF6052"/>
<path d="M45.8571 20.1596C44.9107 19.2632 41.125 18.9728 39.9882 18.9077C39.9131 18.9033 39.8378 18.9142 39.7671 18.9399C39.6963 18.9655 39.6315 19.0054 39.5767 19.0569C39.5218 19.1085 39.4781 19.1707 39.4481 19.2398C39.4181 19.3088 39.4026 19.3833 39.4023 19.4585V29.4036C39.4023 29.5499 39.4603 29.6903 39.5635 29.794C39.6668 29.8977 39.8069 29.9563 39.9532 29.9569H43.2682C43.385 29.9564 43.4986 29.9191 43.593 29.8503C43.6874 29.7816 43.7577 29.6848 43.794 29.5738C43.8741 29.3235 45.777 23.4846 46.0274 20.6128C46.0356 20.5292 46.0245 20.4449 45.995 20.3664C45.9654 20.2878 45.9183 20.2171 45.8571 20.1596ZM42.8651 28.8452H40.5065V20.0494C42.2817 20.1896 44.1971 20.4926 44.8932 20.8306C44.6002 23.2518 43.2757 27.5483 42.8651 28.8452Z" fill="#DF6052"/>
<path d="M65.3637 20.0088C61.0272 20.0088 58.621 21.118 58.5209 21.1655C58.4504 21.1987 58.3877 21.2464 58.3369 21.3055C58.2861 21.3646 58.2483 21.4338 58.2261 21.5085C58.2039 21.5832 58.1977 21.6617 58.2079 21.739C58.2182 21.8162 58.2446 21.8904 58.2855 21.9567C58.9691 23.0559 61.1073 29.1526 61.5179 30.6549C61.5494 30.7715 61.6184 30.8745 61.7144 30.9479C61.8104 31.0212 61.9279 31.0608 62.0487 31.0605H65.3637C65.4363 31.0605 65.5081 31.0462 65.5751 31.0184C65.6421 30.9905 65.7029 30.9497 65.7541 30.8983C65.8053 30.8469 65.8458 30.7859 65.8734 30.7188C65.9009 30.6516 65.9149 30.5797 65.9146 30.5072V20.5596C65.9149 20.4872 65.9009 20.4154 65.8733 20.3484C65.8458 20.2815 65.8052 20.2206 65.754 20.1694C65.7028 20.1182 65.6419 20.0776 65.5749 20.05C65.5079 20.0225 65.4362 20.0085 65.3637 20.0088ZM64.8104 29.9513H62.4618C61.9386 28.2438 60.3937 23.797 59.5299 21.9592C61.2384 21.4179 63.0183 21.1352 64.8104 21.1205V29.9513Z" fill="#DF6052"/>
<path d="M78.4601 7.48042L78.2346 7.35017L78.009 7.4804L64.0879 15.5176L63.8623 15.6478V15.9083V31.9801V32.2406L64.088 32.3708L78.009 40.4055L78.2346 40.5356L78.4601 40.4055L92.3787 32.3708L92.6043 32.2406V31.9801V15.9083V15.6478L92.3787 15.5176L78.4601 7.48042ZM78.2345 10.5678L88.424 16.4515L78.2345 22.3329L68.0427 16.4515L78.2345 10.5678ZM66.65 30.6306V18.8628L76.8395 24.7442V36.5166L66.65 30.6306ZM89.8166 30.6453L79.6271 36.5175V24.7442L89.8166 18.8628V30.6453Z" fill="#6F75FF" stroke="#6F75FF" stroke-width="0.902256"/>
<path d="M27.1852 7.48042L26.9596 7.35016L26.734 7.48042L12.8154 15.5176L12.5899 15.6478V15.9083V31.9801V32.2406L12.8155 32.3708L26.734 40.4055L26.9596 40.5357L27.1851 40.4055L41.1037 32.3708L41.3293 32.2406V31.9801V15.9083V15.6478L41.1038 15.5176L27.1852 7.48042ZM26.9596 10.5678L37.1538 16.4515L26.9596 22.3329L16.7677 16.4515L26.9596 10.5678ZM15.375 30.6305V18.8627L25.567 24.7443V36.5166L15.375 30.6305ZM38.5442 30.6452L28.3521 36.5176V24.7443L38.5442 18.8627V30.6452Z" fill="#6F75FF" stroke="#6F75FF" stroke-width="0.902256"/>
<path fill-rule="evenodd" clip-rule="evenodd" d="M9.32275 56.1265C8.6469 56.4671 7.89864 56.6389 7.14194 56.6273C6.54107 56.6435 5.94311 56.5383 5.38384 56.318C4.82457 56.0978 4.31547 55.7669 3.88702 55.3453C3.45961 54.9369 3.12199 54.4438 2.89567 53.8976C2.66935 53.3515 2.5593 52.7641 2.57253 52.173C2.56489 51.3893 2.76349 50.6174 3.1484 49.9347C3.52713 49.2593 4.08288 48.7001 4.75583 48.3172C5.44082 47.9225 6.2187 47.7177 7.00924 47.7238C7.61319 47.716 8.21255 47.8297 8.7717 48.0581C9.33086 48.2865 9.8384 48.6249 10.2642 49.0533L11.9242 47.3532C11.2981 46.7634 10.5646 46.2993 9.76341 45.9862C8.90191 45.6495 7.98427 45.4795 7.05932 45.4854C6.08602 45.4778 5.12008 45.6545 4.21251 46.0062C3.37355 46.3239 2.60779 46.8086 1.9616 47.4309C1.34501 48.0356 0.855526 48.7575 0.521921 49.5541C-0.0026309 50.783 -0.144645 52.1415 0.114402 53.4524C0.373449 54.7633 1.02153 55.9657 1.97412 56.9027C2.62287 57.5211 3.38914 58.003 4.22753 58.3199C5.13877 58.6709 6.10787 58.8475 7.08436 58.8406C8.19954 58.8561 9.30457 58.627 10.3218 58.1696C11.2439 57.7594 12.0575 57.1395 12.6979 56.3594L10.9277 54.8196C10.491 55.3637 9.94405 55.8092 9.32275 56.1265ZM22.7205 50.9362C22.3315 50.4812 21.8467 50.1179 21.3009 49.8721C20.7397 49.6163 20.1299 49.4848 19.5132 49.4865C18.6092 49.4791 17.7284 49.7724 17.0094 50.3202V45.4954H14.5206V58.6604H17.0019V52.8215C17.2566 52.507 17.5715 52.2465 17.9283 52.0554C18.3333 51.825 18.7918 51.705 19.2578 51.7073C19.5111 51.6944 19.7644 51.732 20.0029 51.818C20.2415 51.904 20.4606 52.0366 20.6474 52.2081C21.0129 52.5636 21.1982 53.1295 21.1982 53.9007V58.6579H23.687V54.0809C23.6981 53.4526 23.6136 52.8261 23.4366 52.2231C23.2899 51.749 23.0461 51.3107 22.7205 50.9362ZM32.8383 50.4029C32.0667 49.793 31.1076 49.4692 30.1242 49.4865C29.5237 49.4769 28.9278 49.5924 28.3743 49.8256C27.8209 50.0588 27.322 50.4046 26.9094 50.841C26.0834 51.7133 25.6116 52.8617 25.5857 54.0626C25.5597 55.2636 25.9816 56.4313 26.7692 57.3384C27.1983 57.816 27.7263 58.1945 28.3165 58.4475C28.9265 58.7187 29.5869 58.8578 30.2544 58.8557C31.1971 58.8736 32.1145 58.5509 32.8383 57.9468V58.6704H35.2245V49.6693H32.8383V50.4029ZM32.7457 55.5181C32.4969 55.8616 32.1687 56.1399 31.7893 56.3293C31.3922 56.531 30.9527 56.6349 30.5073 56.6323C30.1833 56.6406 29.861 56.5828 29.5601 56.4623C29.2592 56.3418 28.986 56.1612 28.7573 55.9315C28.5285 55.7018 28.3491 55.4279 28.2298 55.1265C28.1105 54.8251 28.054 54.5026 28.0636 54.1786C28.0529 53.5354 28.2926 52.9132 28.7321 52.4435C28.9487 52.2044 29.2148 52.0153 29.5119 51.8895C29.8089 51.7637 30.1298 51.7041 30.4522 51.7149C30.9027 51.7118 31.3476 51.8138 31.7517 52.0128C32.145 52.2024 32.4881 52.4821 32.7532 52.829L32.7457 55.5181ZM39.3282 44.9271C38.9026 44.9187 38.4907 45.0778 38.1814 45.3702C38.0317 45.5107 37.9124 45.6804 37.8309 45.8688C37.7493 46.0572 37.7072 46.2604 37.7072 46.4657C37.7072 46.671 37.7493 46.8741 37.8309 47.0625C37.9124 47.2509 38.0317 47.4206 38.1814 47.5611C38.4945 47.8479 38.9036 48.0069 39.3282 48.0069C39.7527 48.0069 40.1619 47.8479 40.4749 47.5611C40.6246 47.4206 40.7439 47.2509 40.8255 47.0625C40.907 46.8741 40.9491 46.671 40.9491 46.4657C40.9491 46.2604 40.907 46.0572 40.8255 45.8688C40.7439 45.6804 40.6246 45.5107 40.4749 45.3702C40.1656 45.0778 39.7537 44.9187 39.3282 44.9271ZM38.0763 58.6529H40.56V49.6693H38.0813L38.0763 58.6529ZM52.3479 52.2156C52.1998 51.7388 51.9542 51.298 51.6268 50.9212C51.2368 50.4661 50.7512 50.1027 50.2046 49.857C49.6443 49.6015 49.0353 49.47 48.4194 49.4715C47.4721 49.4728 46.554 49.7989 45.818 50.3954V49.6693H43.4319V58.6604H45.9106V52.8215C46.1657 52.5064 46.4816 52.2459 46.8395 52.0554C47.2436 51.8247 47.7013 51.7047 48.1665 51.7073C48.4199 51.6938 48.6733 51.7312 48.912 51.8172C49.1507 51.9032 49.3697 52.0361 49.5562 52.2081C49.9242 52.5636 50.107 53.1295 50.107 53.9007V58.6579H52.5958V54.0809C52.6122 53.4531 52.5319 52.8265 52.3579 52.2231L52.3479 52.2156Z" fill="#DF6052"/>
<path fill-rule="evenodd" clip-rule="evenodd" d="M63.7183 56.1266C63.0424 56.4671 62.2941 56.6389 61.5374 56.6273C60.9366 56.6435 60.3386 56.5383 59.7793 56.3181C59.2201 56.0978 58.711 55.767 58.2825 55.3454C57.8551 54.9369 57.5175 54.4439 57.2912 53.8977C57.0649 53.3515 56.9548 52.7642 56.968 52.1731C56.9604 51.3894 57.159 50.6174 57.5439 49.9347C57.9223 49.2606 58.4771 48.7023 59.1488 48.3197C59.8375 47.9229 60.62 47.718 61.4148 47.7263C62.0187 47.7185 62.6181 47.8322 63.1772 48.0606C63.7364 48.289 64.2439 48.6275 64.6697 49.0559L66.3297 47.3558C65.6969 46.7635 64.9555 46.2993 64.1464 45.9887C63.2849 45.652 62.3673 45.4821 61.4423 45.488C60.4652 45.4815 59.4957 45.6608 58.5855 46.0163C57.7554 46.3337 56.9976 46.8148 56.3571 47.4309C55.7405 48.0356 55.251 48.7575 54.9174 49.5541C54.3929 50.7831 54.2509 52.1416 54.5099 53.4525C54.769 54.7633 55.417 55.9657 56.3696 56.9027C57.0184 57.5211 57.7846 58.003 58.623 58.3199C59.5343 58.6709 60.5034 58.8476 61.4799 58.8407C62.5943 58.8564 63.6985 58.6273 64.7148 58.1697C65.6381 57.7602 66.4527 57.1402 67.0934 56.3594L65.3232 54.8196C64.8866 55.3637 64.3396 55.8092 63.7183 56.1266ZM75.5837 50.1175C74.811 49.7033 73.9479 49.4865 73.0712 49.4865C72.1944 49.4865 71.3313 49.7033 70.5586 50.1175C69.8248 50.5145 69.2122 51.1029 68.7859 51.82C68.3679 52.5349 68.1476 53.348 68.1476 54.1761C68.1476 55.0042 68.3679 55.8174 68.7859 56.5322C69.2134 57.2458 69.8259 57.8307 70.5586 58.2247C71.3323 58.6358 72.1951 58.8507 73.0712 58.8507C73.9473 58.8507 74.81 58.6358 75.5837 58.2247C76.3152 57.8299 76.9267 57.2452 77.3539 56.5322C77.7737 55.818 77.995 55.0046 77.995 54.1761C77.995 53.3477 77.7737 52.5343 77.3539 51.82C76.9289 51.1007 76.3173 50.5098 75.5837 50.11V50.1175ZM74.8326 55.9263C74.36 56.3763 73.7325 56.6273 73.0799 56.6273C72.4274 56.6273 71.7998 56.3763 71.3273 55.9263C70.8861 55.4492 70.6411 54.8234 70.6411 54.1736C70.6411 53.5239 70.8861 52.898 71.3273 52.421C71.7983 51.9681 72.4265 51.7151 73.0799 51.7151C73.7334 51.7151 74.3615 51.9681 74.8326 52.421C75.2748 52.8974 75.5206 53.5235 75.5206 54.1736C75.5206 54.8237 75.2748 55.4498 74.8326 55.9263ZM86.688 50.3203C85.9328 49.7575 85.0107 49.4639 84.0691 49.4865C83.4682 49.4772 82.872 49.5928 82.3182 49.826C81.7643 50.0591 81.2649 50.4048 80.8517 50.8411C80.0257 51.7133 79.5539 52.8617 79.528 54.0627C79.5021 55.2637 79.9239 56.4313 80.7115 57.3384C81.1416 57.8137 81.6695 58.1904 82.2588 58.4426C82.8696 58.714 83.5309 58.8531 84.1993 58.8507C85.1394 58.868 86.0545 58.5472 86.7782 57.9468V58.6704H89.1643V45.4955H86.683L86.688 50.3203ZM86.688 55.5181C86.4395 55.861 86.1124 56.1392 85.7341 56.3294C85.3369 56.5308 84.8975 56.6347 84.4521 56.6323C84.128 56.641 83.8055 56.5834 83.5045 56.463C83.2034 56.3427 82.9301 56.1621 82.7013 55.9323C82.4725 55.7026 82.293 55.4285 82.1739 55.127C82.0547 54.8254 81.9984 54.5027 82.0084 54.1786C81.9981 53.5359 82.2367 52.9142 82.6744 52.4435C82.8914 52.2048 83.1575 52.016 83.4545 51.8902C83.7514 51.7645 84.0722 51.7046 84.3946 51.7149C84.8458 51.7118 85.2915 51.8138 85.6965 52.0128C86.0901 52.2021 86.4332 52.4818 86.698 52.8291L86.688 55.5181ZM100.148 54.081C100.156 53.283 99.9649 52.4958 99.5926 51.79C99.2341 51.0993 98.695 50.5187 98.0327 50.11C97.3573 49.6887 96.5753 49.4697 95.7793 49.479C95.14 49.4727 94.5068 49.6024 93.9215 49.8596C93.3767 50.0949 92.8897 50.4461 92.4943 50.8886C92.106 51.3302 91.8022 51.8394 91.598 52.3909C91.3841 52.9617 91.2755 53.5666 91.2775 54.1761C91.2775 55.5632 91.734 56.6891 92.6471 57.5537C93.59 58.4273 94.8402 58.8926 96.1248 58.8482C96.8518 58.8495 97.5717 58.7065 98.243 58.4276C98.8888 58.1689 99.4638 57.7604 99.9206 57.2357L98.5134 55.8687C98.2242 56.1662 97.8853 56.4111 97.5119 56.5923C97.1003 56.7989 96.6454 56.9044 96.1849 56.9002C95.5659 56.9146 94.9627 56.7037 94.4873 56.3068C94.2567 56.1187 94.0668 55.8856 93.9291 55.6217C93.7913 55.3579 93.7087 55.0688 93.6861 54.772H100.101C100.138 54.5436 100.153 54.3123 100.148 54.081ZM93.7888 53.0018C93.8553 52.5618 94.0917 52.1653 94.4473 51.8977C94.8195 51.5879 95.29 51.421 95.7743 51.427C96.2373 51.4184 96.6857 51.5888 97.0262 51.9027C97.3542 52.1802 97.5615 52.5743 97.6046 53.0018H93.7888Z" fill="#6F75FF"/>
<path fill-rule="evenodd" clip-rule="evenodd" d="M3.5888 66.4595C3.346 66.5819 3.07694 66.6429 2.80511 66.6373C2.58963 66.6431 2.3752 66.6052 2.1747 66.5261C1.9742 66.4469 1.79176 66.328 1.63835 66.1766C1.48415 66.0298 1.36238 65.8525 1.28088 65.6558C1.19938 65.4592 1.15995 65.2477 1.16513 65.0349C1.162 64.7533 1.23372 64.4759 1.37295 64.2311C1.50852 63.9888 1.70762 63.7879 1.94882 63.6503C2.19687 63.5074 2.47881 63.4338 2.76505 63.4374C2.98169 63.4347 3.19666 63.4756 3.39712 63.5578C3.59759 63.6399 3.77944 63.7617 3.93182 63.9157L4.52772 63.3022C4.30158 63.0859 4.03537 62.9158 3.74404 62.8015C3.43332 62.6822 3.10286 62.6228 2.77006 62.6262C2.42004 62.6223 2.07248 62.6852 1.74601 62.8115C1.44722 62.9228 1.17389 63.0931 0.942293 63.3122C0.72198 63.5262 0.545881 63.7815 0.424009 64.0634C0.300111 64.3613 0.236328 64.6809 0.236328 65.0036C0.236328 65.3263 0.300111 65.6458 0.424009 65.9437C0.542688 66.2416 0.721913 66.5115 0.950338 66.7365C1.17876 66.9615 1.45141 67.1366 1.75102 67.2507C2.07909 67.3778 2.42827 67.4415 2.78008 67.4385C3.18174 67.4405 3.57903 67.3551 3.94434 67.1881C4.27571 67.0405 4.56806 66.8176 4.79813 66.5371L4.16217 65.9838C4.00631 66.1806 3.811 66.3427 3.5888 66.4595ZM15.607 63.3373C15.3772 63.1183 15.1055 62.948 14.8083 62.8365C14.1554 62.5861 13.4331 62.5861 12.7802 62.8365C12.4834 62.9474 12.2125 63.1178 11.984 63.3373C11.7692 63.557 11.5991 63.8163 11.4833 64.1009C11.2363 64.6999 11.2363 65.3723 11.4833 65.9713C11.6033 66.2619 11.7813 66.5251 12.0064 66.7446C12.2316 66.9642 12.4991 67.1355 12.7927 67.2482C13.4456 67.4986 14.168 67.4986 14.8208 67.2482C15.1176 67.1358 15.3891 66.9656 15.6195 66.7474C15.8346 66.5279 16.0047 66.2685 16.1203 65.9838C16.3672 65.3848 16.3672 64.7125 16.1203 64.1135C16.0051 63.8249 15.8341 63.562 15.617 63.3398L15.607 63.3373ZM15.1688 65.8411C15.0325 66.0868 14.8329 66.2915 14.5908 66.4341C14.3486 66.5766 14.0727 66.6518 13.7917 66.6518C13.5108 66.6518 13.2349 66.5766 12.9927 66.4341C12.7506 66.2915 12.551 66.0868 12.4147 65.8411C12.2799 65.5951 12.2092 65.3191 12.2092 65.0386C12.2092 64.7581 12.2799 64.4821 12.4147 64.2361C12.548 63.994 12.7444 63.7924 12.983 63.6528C13.2288 63.5132 13.5066 63.4398 13.7892 63.4398C14.0719 63.4398 14.3497 63.5132 14.5955 63.6528C14.8341 63.7924 15.0305 63.994 15.1638 64.2361C15.2986 64.4821 15.3693 64.7581 15.3693 65.0386C15.3693 65.3191 15.2986 65.5951 15.1638 65.8411H15.1688ZM26.5686 65.7459L23.8995 62.7038H23.2486V67.3734H24.175V64.3313L26.854 67.3734H27.5075V62.7038H26.5786L26.5686 65.7459ZM37.3149 65.1525C37.2064 65.0507 37.0872 64.9608 36.9593 64.8846C36.8314 64.804 36.6955 64.7368 36.5537 64.6843C36.4135 64.6317 36.2783 64.5767 36.1456 64.5216C36.0129 64.4665 35.8952 64.4139 35.7901 64.3663C35.695 64.3242 35.6098 64.2628 35.5397 64.1861C35.4772 64.1178 35.4432 64.0282 35.4445 63.9357C35.4435 63.8539 35.467 63.7736 35.5121 63.7053C35.556 63.6385 35.6163 63.5842 35.6874 63.5476C35.7667 63.5078 35.8509 63.4783 35.9378 63.46C36.0249 63.4405 36.1139 63.4313 36.2032 63.4324C36.3582 63.4325 36.5119 63.4614 36.6564 63.5176C36.7936 63.5667 36.9202 63.6415 37.0294 63.7379L37.5127 63.0694C37.1071 62.7769 36.618 62.6232 36.118 62.6312C35.9194 62.6302 35.7218 62.6597 35.5322 62.7188C35.353 62.7753 35.184 62.8598 35.0314 62.9692C34.8828 63.0796 34.7605 63.2215 34.6734 63.3849C34.5805 63.5552 34.533 63.7467 34.5357 63.9407C34.5376 64.1638 34.6026 64.3819 34.7231 64.5697C34.8436 64.7575 35.0147 64.9075 35.2167 65.0023C35.3483 65.0724 35.4837 65.1351 35.6223 65.1901C35.7825 65.2552 35.9228 65.3128 36.0429 65.3578C36.1633 65.406 36.2812 65.4603 36.396 65.5206C36.5009 65.5727 36.5925 65.648 36.6639 65.7409C36.7262 65.8285 36.7587 65.9339 36.7565 66.0414C36.7583 66.1218 36.7416 66.2015 36.7077 66.2744C36.6739 66.3473 36.6238 66.4115 36.5612 66.462C36.4201 66.5767 36.2422 66.6363 36.0605 66.6298C35.8464 66.6303 35.635 66.5823 35.442 66.4896C35.2479 66.3992 35.0729 66.2725 34.9262 66.1165L34.3003 66.7399C34.7711 67.1846 35.3929 67.4342 36.0404 67.4385C36.3178 67.4408 36.5922 67.3818 36.8441 67.2657C37.0842 67.1544 37.2907 66.9817 37.4426 66.765C37.5911 66.5522 37.6699 66.2984 37.6679 66.0389C37.6691 65.8674 37.6368 65.6973 37.5728 65.5381C37.5187 65.3933 37.4342 65.2618 37.3249 65.1525H37.3149ZM47.7607 65.4705C47.7732 65.6298 47.7515 65.79 47.6971 65.9403C47.6427 66.0905 47.5568 66.2275 47.4452 66.3418C47.2157 66.5342 46.9259 66.6396 46.6265 66.6396C46.327 66.6396 46.0372 66.5342 45.8077 66.3418C45.6961 66.2275 45.6102 66.0905 45.5558 65.9403C45.5014 65.79 45.4797 65.6298 45.4922 65.4705V62.7038H44.5683V65.4054C44.5489 65.6941 44.5942 65.9834 44.7007 66.2524C44.8073 66.5214 44.9725 66.7632 45.1843 66.9603C45.3755 67.1208 45.5968 67.2416 45.8353 67.3158C46.35 67.4795 46.9029 67.4795 47.4177 67.3158C47.657 67.2419 47.8791 67.1211 48.0711 66.9603C48.2838 66.7638 48.4498 66.5221 48.5568 66.253C48.6638 65.984 48.7092 65.6943 48.6896 65.4054V62.7038H47.7632L47.7607 65.4705ZM56.872 62.7038H55.9456V67.3734H58.8975V66.5722H56.872V62.7038ZM64.9442 63.505H66.2161V67.3734H67.145V63.505H68.4119V62.7038H64.9442V63.505ZM75.3174 67.3734H76.2413V62.7038H75.3174V67.3734ZM86.8574 65.7459L84.1758 62.7038H83.5248V67.3734H84.4512V64.3313L87.1303 67.3734H87.7863V62.7038H86.8574V65.7459ZM97.1229 64.4715V65.2727H98.3598V66.2742C98.0544 66.5135 97.6761 66.6408 97.2882 66.6348C97.0723 66.6403 96.8576 66.6024 96.6567 66.5232C96.4558 66.4441 96.2729 66.3254 96.1189 66.1741C95.9647 66.0273 95.8429 65.8499 95.7614 65.6533C95.6799 65.4567 95.6405 65.2451 95.6457 65.0324C95.6437 64.7509 95.7154 64.4739 95.8535 64.2286C95.9907 63.9867 96.1905 63.7861 96.4319 63.6478C96.6791 63.5052 96.9602 63.4317 97.2456 63.4349C97.4626 63.4323 97.6779 63.4732 97.8788 63.5554C98.0796 63.6375 98.2619 63.7592 98.4149 63.9132L99.0108 63.2997C98.7842 63.0839 98.5181 62.9139 98.2271 62.799C97.9163 62.6799 97.5859 62.6204 97.2531 62.6237C96.9031 62.6198 96.5555 62.6827 96.229 62.809C95.9295 62.9202 95.6553 63.0905 95.4228 63.3097C95.2025 63.5237 95.0264 63.779 94.9045 64.0609C94.779 64.3579 94.7151 64.6773 94.7168 64.9998C94.7154 65.3171 94.7777 65.6314 94.8998 65.9243C95.0219 66.2171 95.2015 66.4825 95.4278 66.7049C95.6619 66.9246 95.9378 67.0949 96.2391 67.2056C96.5663 67.3325 96.9146 67.3962 97.2656 67.3934C97.6673 67.3959 98.0647 67.3104 98.4299 67.143C98.7624 66.9962 99.0557 66.7732 99.2862 66.4921V64.4164L97.1229 64.4715Z" fill="#222222"/>
</g>
<defs>
<clipPath id="clip0">
<rect width="120" height="71.3801" fill="white" transform="translate(0 0.570801)"/>
</clipPath>
</defs>
</svg>
