<svg width="40" height="40" viewBox="0 0 40 40" fill="none" xmlns="http://www.w3.org/2000/svg">
<g clip-path="url(#clip0)">
<path d="M26.3997 28.033L28.2288 25.0648L31.5298 23.9391L31.8955 20.4721L34.379 18.0272L33.1982 14.7455L34.379 11.4637L31.8955 9.01875L31.5298 5.55188L28.2289 4.42609L26.3998 1.45789L22.94 1.87562L20.001 0L17.062 1.87578L13.6023 1.45805L11.7732 4.42617L8.47227 5.55195L8.10656 9.01883L5.62305 11.4637L6.80383 14.7455L5.62305 18.0273L8.10648 20.4722L8.47219 23.9391L11.7731 25.0649L13.6023 28.033L17.062 27.6154L20.001 29.4911L22.94 27.6154L26.3997 28.033ZM9.88938 14.7455C9.88938 9.17 14.4255 4.63391 20.001 4.63391C25.5766 4.63391 30.1127 9.17 30.1127 14.7455C30.1127 20.3211 25.5766 24.8572 20.001 24.8572C14.4255 24.8572 9.88938 20.3211 9.88938 14.7455Z" fill="white"/>
<path d="M20.0008 6.97913C15.7184 6.97913 12.2344 10.4631 12.2344 14.7455C12.2344 19.028 15.7184 22.5119 20.0008 22.5119C24.2832 22.5119 27.7672 19.028 27.7672 14.7455C27.7672 10.4631 24.2832 6.97913 20.0008 6.97913Z" fill="white"/>
<path d="M16.5088 30.0444L12.3932 30.5413L10.2187 27.0126L9.47953 26.7606L6.29102 36.7267L12.0312 36.4109L16.5223 40L19.1651 31.7397L16.5088 30.0444Z" fill="white"/>
<path d="M29.7823 27.0127L27.6077 30.5413L23.4922 30.0444L20.8359 31.7397L23.4788 40L27.9698 36.4109L33.71 36.7267L30.5215 26.7606L29.7823 27.0127Z" fill="white"/>
</g>
<defs>
<clipPath id="clip0">
<rect width="40" height="40" fill="white"/>
</clipPath>
</defs>
</svg>
