<svg width="40" height="40" viewBox="0 0 40 40" fill="none" xmlns="http://www.w3.org/2000/svg">
<g clip-path="url(#clip0)">
<path d="M5.83931 25.6311C5.61287 26.0828 5.70106 26.6287 6.05781 26.9858L6.34437 27.2723C7.17232 26.2912 8.13728 25.2264 9.30763 24.0564C9.39034 23.9737 9.47548 23.9337 9.55849 23.8574L7.71492 22.0135C6.64314 23.952 6.01814 25.2765 5.83931 25.6311Z" fill="white"/>
<path d="M15.9363 30.6854C14.7632 31.8585 13.7012 32.8253 12.7256 33.6539L13.1138 34.0421C13.4739 34.4022 14.025 34.4888 14.4782 34.2557C15.0852 33.9429 16.0398 33.4937 18.0662 32.3651L16.1356 30.4346C16.0593 30.5179 16.0193 30.6027 15.9363 30.6854Z" fill="white"/>
<path d="M15.3128 24.6826C14.4659 23.8357 12.0844 24.595 10.9656 25.7135C7.22291 29.4561 5.53254 32.1096 4.77357 33.6764C4.55598 34.1253 4.64661 34.6627 4.9994 35.0155C5.35279 35.3692 5.89112 35.4589 6.34034 35.2414C7.87201 34.4976 10.4932 32.8152 14.2804 29.0283C15.5106 27.7975 16.1176 25.4876 15.3137 24.6835L15.3128 24.6826Z" fill="white"/>
<path d="M3.65777 15.6024L0.343261 18.9169C-0.0314952 19.2916 -0.108399 19.8718 0.157104 20.3314C0.416198 20.7849 0.9588 21.0159 1.47516 20.8777C3.26654 20.3973 4.84277 20.1944 5.90417 20.4666C7.41418 17.7819 9.0368 15.3106 10.7552 13.0657C9.76129 12.4285 6.47668 12.7835 3.65777 15.6024Z" fill="white"/>
<path d="M19.8363 39.8743C20.2877 40.1025 20.8342 40.0143 21.1916 39.6567L24.5064 36.3422C27.0726 33.7753 27.5243 30.4636 26.942 29.4135C24.4384 31.3004 21.902 32.8937 19.5357 34.2276C19.699 35.1495 19.5903 36.044 19.2043 38.6563C19.1289 39.162 19.3901 39.6512 19.8363 39.8743Z" fill="white"/>
<path d="M23.2662 11.7554C21.8956 13.1262 21.8956 15.3561 23.2662 16.727C24.637 18.0978 26.8673 18.0978 28.2381 16.727C29.609 15.3561 29.609 13.1262 28.2381 11.7554C26.8673 10.3845 24.637 10.3845 23.2662 11.7554Z" fill="white"/>
<path d="M39.9312 1.14321C39.8891 0.56368 39.4277 0.105611 38.85 0.0622765C35.9718 -0.154398 33.105 0.199606 30.2949 1.05898C30.5064 2.98952 31.5049 5.07876 33.2097 6.78347C34.9348 8.50832 37.0808 9.50655 39.0459 9.69332C39.8027 7.04104 40.1616 4.20046 39.9312 1.14321Z" fill="white"/>
<path d="M31.5522 8.44086C29.6022 6.49078 28.4114 4.15192 28.0293 1.87469C20.9922 4.76074 14.2558 11.0632 8.93262 19.917L11.5773 22.5616C13.3842 21.828 15.5778 21.6342 16.9691 23.0252C18.3622 24.4186 18.1648 26.6113 17.4315 28.4158L20.1631 31.1475C26.9752 27.0419 34.9061 20.5737 38.2786 11.9681C35.9459 11.6156 33.5341 10.4227 31.5522 8.44086ZM29.8945 18.3844C27.6103 20.6686 23.8929 20.6686 21.6084 18.3844C19.3239 16.0999 19.3239 12.3822 21.6084 10.098C23.8929 7.81372 27.6103 7.81372 29.8945 10.098C32.1791 12.3825 32.1791 16.0999 29.8945 18.3844Z" fill="white"/>
</g>
<defs>
<clipPath id="clip0">
<rect width="40" height="40" fill="white"/>
</clipPath>
</defs>
</svg>
