<svg width="65" height="76" viewBox="0 0 65 76" fill="none" xmlns="http://www.w3.org/2000/svg">
<path d="M61.1811 50.332C59.1652 55.7954 56.1165 60.5458 52.1185 64.45C47.5678 68.8937 41.6088 72.4248 34.4071 74.9436C34.1707 75.026 33.9241 75.0935 33.6764 75.1433C33.3491 75.208 33.016 75.2429 32.6859 75.2475H32.6212C32.2693 75.2475 31.9157 75.212 31.5649 75.1433C31.3172 75.0935 31.074 75.026 30.8388 74.9453C23.6285 72.4305 17.6621 68.9011 13.1068 64.4574C9.10706 60.5533 6.05893 55.8057 4.04591 50.3423C0.385523 40.4088 0.593806 29.466 0.761461 20.6723L0.764322 20.5373C0.798082 19.8112 0.819826 19.0484 0.831843 18.2061C0.893068 14.0708 4.18095 10.6496 8.31684 10.419C16.94 9.9378 23.6107 7.12541 29.3104 1.56988L29.3602 1.52411C30.3066 0.656072 31.4991 0.230352 32.6859 0.248091C33.8303 0.262968 34.9701 0.688116 35.8828 1.52411L35.9314 1.56988C41.6323 7.12541 48.303 9.9378 56.9261 10.419C61.062 10.6496 64.3499 14.0708 64.4112 18.2061C64.4232 19.0541 64.4449 19.8158 64.4787 20.5373L64.4804 20.5945C64.6475 29.4048 64.8546 40.3693 61.1811 50.332Z" fill="#C5C8FF"/>
<path d="M61.1807 50.3322C59.1649 55.7956 56.1162 60.546 52.1182 64.4502C47.5674 68.8939 41.6085 72.425 34.4067 74.9438C34.1704 75.0262 33.9238 75.0937 33.676 75.1435C33.3487 75.2082 33.0157 75.2431 32.6855 75.2477V0.248291C33.83 0.263168 34.9698 0.688316 35.8825 1.52431L35.9311 1.57008C41.632 7.12561 48.3027 9.93799 56.9258 10.4192C61.0617 10.6498 64.3496 14.071 64.4108 18.2063C64.4228 19.0543 64.4446 19.816 64.4783 20.5375L64.4801 20.5947C64.6472 29.4049 64.8543 40.3695 61.1807 50.3322Z" fill="#6F75FF"/>
<path d="M51.3115 37.7473C51.3115 48.0315 42.9614 56.4029 32.6857 56.4395H32.6199C22.314 56.4395 13.9277 48.0538 13.9277 37.7473C13.9277 27.4413 22.314 19.0557 32.6199 19.0557H32.6857C42.9614 19.0923 51.3115 27.4636 51.3115 37.7473Z" fill="white"/>
<path d="M51.3114 37.7473C51.3114 48.0315 42.9612 56.4029 32.6855 56.4395V19.0557C42.9612 19.0923 51.3114 27.4636 51.3114 37.7473Z" fill="#C5C8FF"/>
<path d="M41.1045 35.056L32.6862 43.4754L30.8672 45.2944C30.4375 45.7242 29.8739 45.9387 29.3108 45.9387C28.7472 45.9387 28.1841 45.7242 27.7538 45.2944L23.8428 41.3817C22.9834 40.5222 22.9834 39.1301 23.8428 38.2701C24.7011 37.4106 26.095 37.4106 26.9545 38.2701L29.3108 40.6264L37.9929 31.9443C38.8523 31.0843 40.2462 31.0843 41.1045 31.9443C41.964 32.8038 41.964 34.1977 41.1045 35.056Z" fill="#C5C8FF"/>
<path d="M41.1038 35.056L32.6855 43.4754V37.2504L37.9922 31.9443C38.8516 31.0843 40.2455 31.0843 41.1038 31.9443C41.9633 32.8038 41.9633 34.1977 41.1038 35.056Z" fill="#6F75FF"/>
</svg>
