<svg width="43" height="43" viewBox="0 0 43 43" fill="none" xmlns="http://www.w3.org/2000/svg">
<path d="M38.02 4.7375C37.1328 3.83081 35.8198 3.49545 34.5955 3.85032L6.04609 12.0993C4.75436 12.4577 3.83879 13.4815 3.59216 14.7804C3.3402 16.104 4.22028 17.7861 5.37006 18.4888L14.2968 23.9396C15.2124 24.5003 16.3941 24.3601 17.1518 23.6007L27.3738 13.3786C27.8884 12.8445 28.7401 12.8445 29.2547 13.3786C29.7692 13.8914 29.7692 14.7271 29.2547 15.2594L19.0149 25.4815C18.2554 26.2409 18.1135 27.4191 18.6724 28.3364L24.1268 37.2969C24.7655 38.3598 25.8656 38.9648 27.0722 38.9648C27.2142 38.9648 27.3738 38.9648 27.5158 38.9453C28.8998 38.7696 29.9999 37.8275 30.408 36.4967L38.8717 8.16201C39.2443 6.95545 38.9072 5.64242 38.02 4.7375Z" fill="#5F9DFF"/>
<path opacity="0.4" fill-rule="evenodd" clip-rule="evenodd" d="M5.34204 29.9857C5.00137 29.9857 4.66069 29.8562 4.40163 29.5953C3.88175 29.0754 3.88175 28.2344 4.40163 27.7145L6.82363 25.2907C7.34351 24.7726 8.18633 24.7726 8.70622 25.2907C9.22433 25.8106 9.22433 26.6534 8.70622 27.1733L6.28245 29.5953C6.02339 29.8562 5.68272 29.9857 5.34204 29.9857ZM12.0159 32.1015C11.6753 32.1015 11.3346 31.972 11.0755 31.7111C10.5556 31.1912 10.5556 30.3502 11.0755 29.8303L13.4975 27.4065C14.0174 26.8884 14.8602 26.8884 15.3801 27.4065C15.8982 27.9264 15.8982 28.7692 15.3801 29.2891L12.9563 31.7111C12.6973 31.972 12.3566 32.1015 12.0159 32.1015ZM12.4661 38.4323C12.7251 38.6932 13.0658 38.8227 13.4065 38.8227C13.7472 38.8227 14.0878 38.6932 14.3469 38.4323L16.7707 36.0103C17.2888 35.4905 17.2888 34.6476 16.7707 34.1278C16.2508 33.6096 15.408 33.6096 14.8881 34.1278L12.4661 36.5515C11.9462 37.0714 11.9462 37.9125 12.4661 38.4323Z" fill="#5F9DFF"/>
</svg>
