<svg width="37" height="35" viewBox="0 0 37 35" fill="none" xmlns="http://www.w3.org/2000/svg">
<path opacity="0.4" d="M20.0247 2.06937L23.9753 10.0083C24.2663 10.5835 24.8218 10.9829 25.4625 11.0717L34.3362 12.3641C34.8544 12.4369 35.3247 12.7103 35.6424 13.1274C35.9565 13.5393 36.0914 14.0612 36.0151 14.5743C35.9529 15.0003 35.7524 15.3945 35.4454 15.6962L29.0155 21.9292C28.5452 22.3641 28.3322 23.0085 28.4458 23.6388L30.0289 32.4014C30.1975 33.4595 29.4965 34.4572 28.4458 34.6578C28.0128 34.727 27.5691 34.6542 27.1787 34.4554L19.2633 30.3315C18.6759 30.035 17.982 30.035 17.3945 30.3315L9.47921 34.4554C8.50665 34.972 7.3016 34.6205 6.76031 33.6619C6.55976 33.2802 6.48877 32.8452 6.55444 32.421L8.1375 23.6565C8.25109 23.0281 8.03634 22.3801 7.56781 21.9452L1.13794 15.7158C0.373032 14.9773 0.349961 13.7612 1.08648 12.9961C1.10245 12.9801 1.1202 12.9624 1.13794 12.9446C1.4432 12.6339 1.84429 12.4369 2.27732 12.3854L11.151 11.0912C11.7899 11.0007 12.3454 10.6048 12.6382 10.0261L16.4468 2.06937C16.7858 1.38767 17.4886 0.963382 18.2517 0.981135H18.4895C19.1515 1.06102 19.7283 1.47111 20.0247 2.06937" fill="#6F75FF"/>
<path d="M18.2782 30.1104C17.9345 30.1211 17.5997 30.2134 17.2985 30.3785L9.42188 34.4931C8.45812 34.953 7.3048 34.5961 6.76445 33.6745C6.56426 33.298 6.49163 32.8665 6.55895 32.4438L8.13214 23.6979C8.23844 23.0622 8.02585 22.4158 7.56346 21.9683L1.13071 15.7405C0.367137 14.9929 0.352964 13.7658 1.10059 13.0005C1.11122 12.9898 1.12008 12.9809 1.13071 12.972C1.43542 12.6702 1.82872 12.4713 2.25214 12.4091L11.1333 11.1021C11.7764 11.0204 12.3344 10.6191 12.6179 10.0366L16.4782 1.97977C16.845 1.32982 17.5483 0.942696 18.2924 0.98354C18.2782 1.51096 18.2782 29.7517 18.2782 30.1104" fill="#6F75FF"/>
</svg>
