<svg width="76" height="76" viewBox="0 0 76 76" fill="none" xmlns="http://www.w3.org/2000/svg">
<path d="M73.0042 62.2191L58.6347 47.8493C55.6542 44.8686 50.8221 44.8686 47.8412 47.8493C44.8605 50.83 47.0252 52.4333 50.0059 55.4137L70.5135 72.5888L75.2178 68.1934C75.3795 66.0525 74.6416 63.8563 73.0042 62.2191Z" fill="#C5C8FF"/>
<path d="M71.7096 69.0451C69.756 69.0451 67.8032 68.3002 66.313 66.8095L51.9434 52.4397C50.3063 50.8025 49.5705 48.6065 49.7319 46.4653C49.0515 46.8174 48.4127 47.278 47.842 47.8484C44.8613 50.8291 44.8613 55.6615 47.842 58.642L62.2115 73.0117C63.702 74.5022 65.6548 75.2473 67.6081 75.2473C69.5612 75.2473 71.5148 74.502 73.0047 73.012C74.348 71.6687 75.0838 69.9493 75.2163 68.1926C74.1198 68.7605 72.9147 69.0451 71.7096 69.0451Z" fill="#6F75FF"/>
<path d="M32.1732 57.8953C46.6634 57.8953 58.41 46.1487 58.41 31.6586C58.41 17.1684 46.6634 5.42188 32.1732 5.42188C17.6831 5.42188 5.93652 17.1684 5.93652 31.6586C5.93652 46.1487 17.6831 57.8953 32.1732 57.8953Z" fill="#F9F6F6"/>
<path d="M40.9684 42.3218C29.4981 42.3218 20.1997 33.0234 20.1997 21.5531C20.1997 15.2851 22.9802 9.67013 27.3706 5.8623C15.1743 8.1186 5.93652 18.8094 5.93652 31.6589C5.93652 46.149 17.6832 57.8957 32.1732 57.8957C46.2582 57.8957 57.7494 46.7966 58.3812 32.8677C54.6761 38.5569 48.2638 42.3218 40.9684 42.3218Z" fill="#C5C8FF" fill-opacity="0.29"/>
<path d="M32.1728 63.0698C14.8529 63.0698 0.761719 48.9789 0.761719 31.6587C0.761719 14.3387 14.8529 0.247559 32.1728 0.247559C49.4928 0.247559 63.5839 14.3384 63.5839 31.6587C63.5839 48.9789 49.4928 63.0698 32.1728 63.0698ZM32.1728 10.5963C20.5589 10.5963 11.1105 20.0448 11.1105 31.6587C11.1105 43.2726 20.5592 52.721 32.1728 52.721C43.7865 52.721 53.2351 43.2723 53.2351 31.6587C53.2351 20.045 43.7865 10.5963 32.1728 10.5963Z" fill="#C5C8FF"/>
<path d="M32.1728 63.0699C14.8529 63.0699 0.761719 48.979 0.761719 31.6588C0.761719 28.8009 3.07829 26.4844 5.9361 26.4844C8.79392 26.4844 11.1105 28.8009 11.1105 31.6588C11.1105 43.2727 20.5592 52.7211 32.1728 52.7211C35.0306 52.7211 37.3472 55.0377 37.3472 57.8955C37.3472 60.7533 35.0306 63.0699 32.1728 63.0699Z" fill="#6F75FF"/>
</svg>
