<svg width="76" height="76" viewBox="0 0 76 76" fill="none" xmlns="http://www.w3.org/2000/svg">
<path d="M52.0078 0.247559V48.0847C65.2176 48.0847 75.9264 37.3759 75.9264 24.1661C75.9264 10.9563 65.2176 0.247559 52.0078 0.247559Z" fill="#6F75FF" fill-opacity="0.52"/>
<path d="M71.3998 24.1661C71.3998 10.9563 62.718 0.247559 52.0084 0.247559C38.7986 0.247559 28.0898 10.9563 28.0898 24.1661C28.0898 37.3759 38.7986 48.0847 52.0084 48.0847C62.718 48.0847 71.3998 37.3759 71.3998 24.1661Z" fill="#C5C8FF"/>
<path d="M29.3715 75.2477C45.0817 75.2477 57.8172 62.5121 57.8172 46.8019C57.8172 31.0918 45.0817 18.3562 29.3715 18.3562C13.6614 18.3562 0.925781 31.0918 0.925781 46.8019C0.925781 62.5121 13.6614 75.2477 29.3715 75.2477Z" fill="#6F75FF"/>
<path d="M48.5592 43.3389L29.6221 70.7192C42.3042 70.5894 52.6231 60.5889 53.2584 48.0335L48.5592 43.3389Z" fill="#CCCEFF"/>
<path d="M48.7631 46.8017C48.7631 59.9093 40.2173 70.5527 29.6222 70.7187C29.5392 70.7202 29.4562 70.7202 29.3717 70.7202C16.1614 70.7202 5.45312 60.0119 5.45312 46.8017C5.45312 34.0109 15.4929 23.5652 28.1207 22.9148L48.5593 43.3384C48.6936 44.4687 48.7631 45.6246 48.7631 46.8017Z" fill="#EDEEFF"/>
<path d="M29.3779 22.8835L48.7431 47.8621C49.8107 48.0077 50.9001 48.0846 52.0076 48.0846C52.4282 48.0846 52.8453 48.0662 53.2591 48.0336C53.2797 47.6257 53.2903 47.215 53.2903 46.8019C53.2903 33.5942 42.5849 22.8869 29.3779 22.8835Z" fill="#ABAFFF"/>
<path d="M29.3787 22.8835C28.953 22.8835 28.5362 22.8946 28.1221 22.9158C28.1009 23.3299 28.0898 23.7467 28.0898 24.1662C28.0898 36.2686 37.0787 46.2699 48.744 47.8621C48.7564 47.5105 48.7639 47.1573 48.7639 46.8021C48.7639 33.5947 40.0855 22.8876 29.3787 22.8835Z" fill="#C5C8FF"/>
</svg>
